<?xml version="1.0" encoding="UTF-8"?>
<svg width="252px" height="51px" viewBox="0 0 252 51" version="1.1" xmlns="http://www.w3.org/2000/svg" xmlns:xlink="http://www.w3.org/1999/xlink">
    <!-- Generator: Sketch 52.4 (67378) - http://www.bohemiancoding.com/sketch -->
    <title>Group 352</title>
    <desc>Created with Sketch.</desc>
    <defs>
        <polygon id="path-1" points="0 0.132834184 49.8905495 0.132834184 49.8905495 51 0 51"></polygon>
        <polygon id="path-3" points="0.8196975 0.132834184 50.6696475 0.132834184 50.6696475 51 0.8196975 51"></polygon>
        <polygon id="path-5" points="0.207508313 0.132834184 50.8266711 0.132834184 50.8266711 51 0.207508313 51"></polygon>
        <polygon id="path-7" points="0.6503775 0.132834184 50.4990525 0.132834184 50.4990525 51 0.6503775 51"></polygon>
        <polygon id="path-9" points="0.2495175 0.132834184 50.0994675 0.132834184 50.0994675 51 0.2495175 51"></polygon>
        <polygon id="path-11" points="0.08278125 0.132834184 49.9734583 0.132834184 49.9734583 51 0.08278125 51"></polygon>
        <polygon id="path-13" points="0.7238175 0.132834184 50.5737675 0.132834184 50.5737675 51 0.7238175 51"></polygon>
        <polygon id="path-15" points="0.3229575 0.132834184 50.1729075 0.132834184 50.1729075 51 0.3229575 51"></polygon>
        <polygon id="path-17" points="0.174623594 0.132834184 50.7937864 0.132834184 50.7937864 51 0.174623594 51"></polygon>
        <polygon id="path-19" points="0.797385 0.132834184 50.647335 0.132834184 50.647335 51 0.797385 51"></polygon>
        <polygon id="path-21" points="0.3963975 0.132834184 50.2463475 0.132834184 50.2463475 51 0.3963975 51"></polygon>
        <polygon id="path-23" points="0.250491488 0.132834184 50.8696543 0.132834184 50.8696543 51 0.250491488 51"></polygon>
        <polygon id="path-25" points="0.870825 0.132834184 50.720775 0.132834184 50.720775 51 0.870825 51"></polygon>
        <polygon id="path-27" points="0.4698375 0.132834184 50.3197875 0.132834184 50.3197875 51 0.4698375 51"></polygon>
        <polygon id="path-29" points="0.0701822917 0.132834184 49.9608594 0.132834184 49.9608594 51 0.0701822917 51"></polygon>
        <polygon id="path-31" points="0.944265 0.132834184 50.794215 0.132834184 50.794215 51 0.944265 51"></polygon>
        <polygon id="path-33" points="0.5445525 0.132834184 50.3932275 0.132834184 50.3932275 51 0.5445525 51"></polygon>
        <polygon id="path-35" points="0.1436925 0.132834184 49.9936425 0.132834184 49.9936425 51 0.1436925 51"></polygon>
        <polygon id="path-37" points="0.017705 0.132834184 49.867655 0.132834184 49.867655 51 0.017705 51"></polygon>
        <polygon id="path-39" points="0.6179925 0.132834184 50.4679425 0.132834184 50.4679425 51 0.6179925 51"></polygon>
        <polygon id="path-41" points="0.2171325 0.132834184 50.0670825 0.132834184 50.0670825 51 0.2171325 51"></polygon>
        <polygon id="path-43" points="0.0516458333 0.132834184 49.9410469 0.132834184 49.9410469 51 0.0516458333 51"></polygon>
        <polygon id="path-45" points="0.69156 0.132834184 50.54151 0.132834184 50.54151 51 0.69156 51"></polygon>
        <polygon id="path-47" points="0.2905725 0.132834184 50.1405225 0.132834184 50.1405225 51 0.2905725 51"></polygon>
        <polygon id="path-49" points="0.143033549 0.132834184 50.7621963 0.132834184 50.7621963 51 0.143033549 51"></polygon>
        <polygon id="path-51" points="0.765 0.132834184 50.61495 0.132834184 50.61495 51 0.765 51"></polygon>
        <polygon id="path-53" points="0.3640125 0.132834184 50.2139625 0.132834184 50.2139625 51 0.3640125 51"></polygon>
        <polygon id="path-55" points="0.21760677 0.132834184 50.8367695 0.132834184 50.8367695 51 0.21760677 51"></polygon>
        <polygon id="path-57" points="0.83844 0.132834184 50.68839 0.132834184 50.68839 51 0.83844 51"></polygon>
        <polygon id="path-59" points="0.4387275 0.132834184 50.2886775 0.132834184 50.2886775 51 0.4387275 51"></polygon>
        <polygon id="path-61" points="0.0378984375 0.132834184 49.9285755 0.132834184 49.9285755 51 0.0378984375 51"></polygon>
        <polygon id="path-63" points="0.91188 0.132834184 50.76183 0.132834184 50.76183 51 0.91188 51"></polygon>
        <polygon id="path-65" points="0.5121675 0.132834184 50.3621175 0.132834184 50.3621175 51 0.5121675 51"></polygon>
        <polygon id="path-67" points="0.1113075 0.132834184 49.9612575 0.132834184 49.9612575 51 0.1113075 51"></polygon>
        <polygon id="path-69" points="0.986595 0.132834184 50.83527 0.132834184 50.83527 51 0.986595 51"></polygon>
        <polygon id="path-71" points="0.5856075 0.132834184 50.4355575 0.132834184 50.4355575 51 0.5856075 51"></polygon>
        <polygon id="path-73" points="0.1847475 0.132834184 50.0346975 0.132834184 50.0346975 51 0.1847475 51"></polygon>
        <polygon id="path-75" points="0.0179583333 0.132834184 49.9099115 0.132834184 49.9099115 51 0.0179583333 51"></polygon>
        <polygon id="path-77" points="0.659175 0.132834184 50.509125 0.132834184 50.509125 51 0.659175 51"></polygon>
        <polygon id="path-79" points="0.2581875 0.132834184 50.1081375 0.132834184 50.1081375 51 0.2581875 51"></polygon>
        <polygon id="path-81" points="0.092734375 0.132834184 49.9834115 0.132834184 49.9834115 51 0.092734375 51"></polygon>
        <polygon id="path-83" points="0.732615 0.132834184 50.582565 0.132834184 50.582565 51 0.732615 51"></polygon>
        <polygon id="path-85" points="0.3316275 0.132834184 50.1828525 0.132834184 50.1828525 51 0.3316275 51"></polygon>
        <polygon id="path-87" points="0.184722051 0.132834184 50.8038848 0.132834184 50.8038848 51 0.184722051 51"></polygon>
        <polygon id="path-89" points="0.806055 0.132834184 50.656005 0.132834184 50.656005 51 0.806055 51"></polygon>
        <polygon id="path-91" points="0.4063425 0.132834184 50.2562925 0.132834184 50.2562925 51 0.4063425 51"></polygon>
        <polygon id="path-93" points="0.00548697917 0.132834184 49.8961641 0.132834184 49.8961641 51 0.00548697917 51"></polygon>
        <polygon id="path-95" points="0.879495 0.132834184 50.73072 0.132834184 50.73072 51 0.879495 51"></polygon>
        <polygon id="path-97" points="0.4797825 0.132834184 50.3297325 0.132834184 50.3297325 51 0.4797825 51"></polygon>
        <polygon id="path-99" points="0.0789869792 0.132834184 49.9696641 0.132834184 49.9696641 51 0.0789869792 51"></polygon>
        <polygon id="path-101" points="0.95421 0.132834184 50.80416 0.132834184 50.80416 51 0.95421 51"></polygon>
        <polygon id="path-103" points="0.55335 0.132834184 50.4033 0.132834184 50.4033 51 0.55335 51"></polygon>
        <polygon id="path-105" points="0.1523625 0.132834184 50.0035875 0.132834184 50.0035875 51 0.1523625 51"></polygon>
        <polygon id="path-107" points="0.02765 0.132834184 49.8776 0.132834184 49.8776 51 0.02765 51"></polygon>
        <polygon id="path-109" points="0.62679 0.132834184 50.47674 0.132834184 50.47674 51 0.62679 51"></polygon>
        <polygon id="path-111" points="0.2258025 0.132834184 50.0770275 0.132834184 50.0770275 51 0.2258025 51"></polygon>
        <polygon id="path-113" points="0.0603229167 0.132834184 49.951 0.132834184 49.951 51 0.0603229167 51"></polygon>
        <polygon id="path-115" points="0.70023 0.132834184 50.55018 0.132834184 50.55018 51 0.70023 51"></polygon>
        <polygon id="path-117" points="0.3005175 0.132834184 50.1504675 0.132834184 50.1504675 51 0.3005175 51"></polygon>
        <polygon id="path-119" points="0.151966799 0.132834184 50.7711296 0.132834184 50.7711296 51 0.151966799 51"></polygon>
        <polygon id="path-121" points="0.77367 0.132834184 50.624895 0.132834184 50.624895 51 0.77367 51"></polygon>
        <polygon id="path-123" points="0.3739575 0.132834184 50.2239075 0.132834184 50.2239075 51 0.3739575 51"></polygon>
        <polygon id="path-125" points="0.22654002 0.132834184 50.8457028 0.132834184 50.8457028 51 0.22654002 51"></polygon>
        <polygon id="path-127" points="0.848385 0.132834184 50.698335 0.132834184 50.698335 51 0.848385 51"></polygon>
        <polygon id="path-129" points="0.4473975 0.132834184 50.2973475 0.132834184 50.2973475 51 0.4473975 51"></polygon>
        <polygon id="path-131" points="0.0465755208 0.132834184 49.9385286 0.132834184 49.9385286 51 0.0465755208 51"></polygon>
        <polygon id="path-133" points="0.921825 0.132834184 50.771775 0.132834184 50.771775 51 0.921825 51"></polygon>
        <polygon id="path-135" points="0.520965 0.132834184 50.370915 0.132834184 50.370915 51 0.520965 51"></polygon>
        <polygon id="path-137" points="0.1212525 0.132834184 49.9712025 0.132834184 49.9712025 51 0.1212525 51"></polygon>
        <polygon id="path-139" points="0.995265 0.132834184 50.845215 0.132834184 50.845215 51 0.995265 51"></polygon>
        <polygon id="path-141" points="0.594405 0.132834184 50.44563 0.132834184 50.44563 51 0.594405 51"></polygon>
        <polygon id="path-143" points="0.1946925 0.132834184 50.0446425 0.132834184 50.0446425 51 0.1946925 51"></polygon>
        <polygon id="path-145" points="0.0279114583 0.132834184 49.9185885 0.132834184 49.9185885 51 0.0279114583 51"></polygon>
        <polygon id="path-147" points="0.667845 0.132834184 50.51907 0.132834184 50.51907 51 0.667845 51"></polygon>
        <polygon id="path-149" points="0.2681325 0.132834184 50.1180825 0.132834184 50.1180825 51 0.2681325 51"></polygon>
        <polygon id="path-151" points="0.101539062 0.132834184 49.9922161 0.132834184 49.9922161 51 0.101539062 51"></polygon>
        <polygon id="path-153" points="0.74256 0.132834184 50.59251 0.132834184 50.59251 51 0.74256 51"></polygon>
        <polygon id="path-155" points="0.3415725 0.132834184 50.1915225 0.132834184 50.1915225 51 0.3415725 51"></polygon>
        <polygon id="path-157" points="0.193655301 0.132834184 50.8141127 0.132834184 50.8141127 51 0.193655301 51"></polygon>
        <polygon id="path-159" points="0.816 0.132834184 50.66595 0.132834184 50.66595 51 0.816 51"></polygon>
        <polygon id="path-161" points="0.41514 0.132834184 50.26509 0.132834184 50.26509 51 0.41514 51"></polygon>
        <polygon id="path-163" points="0.0154401042 0.132834184 49.9061172 0.132834184 49.9061172 51 0.0154401042 51"></polygon>
        <polygon id="path-165" points="0.88944 0.132834184 50.73939 0.132834184 50.73939 51 0.88944 51"></polygon>
        <polygon id="path-167" points="0.4884525 0.132834184 50.3396775 0.132834184 50.3396775 51 0.4884525 51"></polygon>
        <polygon id="path-169" points="0.0889401042 0.132834184 49.9796172 0.132834184 49.9796172 51 0.0889401042 51"></polygon>
        <polygon id="path-171" points="0.96288 0.132834184 50.81283 0.132834184 50.81283 51 0.96288 51"></polygon>
        <polygon id="path-173" points="0.563295 0.132834184 50.413245 0.132834184 50.413245 51 0.563295 51"></polygon>
        <polygon id="path-175" points="0.1623075 0.132834184 50.0122575 0.132834184 50.0122575 51 0.1623075 51"></polygon>
        <polygon id="path-177" points="0.03632 0.132834184 49.887545 0.132834184 49.887545 51 0.03632 51"></polygon>
        <polygon id="path-179" points="0.636735 0.132834184 50.486685 0.132834184 50.486685 51 0.636735 51"></polygon>
        <polygon id="path-181" points="0.2357475 0.132834184 50.0856975 0.132834184 50.0856975 51 0.2357475 51"></polygon>
        <polygon id="path-183" points="0.0691276042 0.132834184 49.9610807 0.132834184 49.9610807 51 0.0691276042 51"></polygon>
        <polygon id="path-185" points="0.710175 0.132834184 50.560125 0.132834184 50.560125 51 0.710175 51"></polygon>
        <polygon id="path-187" points="0.3091875 0.132834184 50.1591375 0.132834184 50.1591375 51 0.3091875 51"></polygon>
        <polygon id="path-189" points="0.162065256 0.132834184 50.781228 0.132834184 50.781228 51 0.162065256 51"></polygon>
        <polygon id="path-191" points="0.783615 0.132834184 50.633565 0.132834184 50.633565 51 0.783615 51"></polygon>
        <polygon id="path-193" points="0.3826275 0.132834184 50.2338525 0.132834184 50.2338525 51 0.3826275 51"></polygon>
        <polygon id="path-195" points="0.236638477 0.132834184 50.8558012 0.132834184 50.8558012 51 0.236638477 51"></polygon>
        <polygon id="path-197" points="0.857055 0.132834184 50.707005 0.132834184 50.707005 51 0.857055 51"></polygon>
        <polygon id="path-199" points="0.45747 0.132834184 50.30742 0.132834184 50.30742 51 0.45747 51"></polygon>
        <polygon id="path-201" points="0.0565286458 0.132834184 49.9472057 0.132834184 49.9472057 51 0.0565286458 51"></polygon>
        <polygon id="path-203" points="0.930495 0.132834184 50.78172 0.132834184 50.78172 51 0.930495 51"></polygon>
        <polygon id="path-205" points="0.53091 0.132834184 50.38086 0.132834184 50.38086 51 0.53091 51"></polygon>
        <polygon id="path-207" points="0.1299225 0.132834184 49.9798725 0.132834184 49.9798725 51 0.1299225 51"></polygon>
        <polygon id="path-209" points="0.00521 0.132834184 49.85516 0.132834184 49.85516 51 0.00521 51"></polygon>
        <polygon id="path-211" points="0.60435 0.132834184 50.4543 0.132834184 50.4543 51 0.60435 51"></polygon>
        <polygon id="path-213" points="0.2033625 0.132834184 50.0545875 0.132834184 50.0545875 51 0.2033625 51"></polygon>
        <polygon id="path-215" points="0.0379921875 0.132834184 49.9286693 0.132834184 49.9286693 51 0.0379921875 51"></polygon>
        <polygon id="path-217" points="0.67779 0.132834184 50.52774 0.132834184 50.52774 51 0.67779 51"></polygon>
        <polygon id="path-219" points="0.2780775 0.132834184 50.1280275 0.132834184 50.1280275 51 0.2780775 51"></polygon>
        <polygon id="path-221" points="0.129180538 0.132834184 50.7483433 0.132834184 50.7483433 51 0.129180538 51"></polygon>
        <polygon id="path-223" points="0.75123 0.132834184 50.60118 0.132834184 50.60118 51 0.75123 51"></polygon>
        <polygon id="path-225" points="0.3515175 0.132834184 50.2014675 0.132834184 50.2014675 51 0.3515175 51"></polygon>
        <polygon id="path-227" points="0.203753758 0.132834184 50.8229165 0.132834184 50.8229165 51 0.203753758 51"></polygon>
        <polygon id="path-229" points="0.82467 0.132834184 50.675895 0.132834184 50.675895 51 0.82467 51"></polygon>
        <polygon id="path-231" points="0.425085 0.132834184 50.275035 0.132834184 50.275035 51 0.425085 51"></polygon>
        <polygon id="path-233" points="0.0241171875 0.132834184 49.9147943 0.132834184 49.9147943 51 0.0241171875 51"></polygon>
    </defs>
    <g id="Page-1" stroke="none" stroke-width="1" fill="none" fill-rule="evenodd">
        <g id="2-copy" transform="translate(-101.000000, -1328.000000)">
            <g id="Group-352" transform="translate(101.000000, 1328.000000)">
                <g id="Group-3">
                    <mask id="mask-2" fill="white">
                        <use xlink:href="#path-1"></use>
                    </mask>
                    <g id="Clip-2"></g>
                    <path d="M49.8905495,25.5664821 C49.8905495,39.6122985 38.7226328,51.0001301 24.9452109,51.0001301 C11.1677891,51.0001301 -0.000127604167,39.6122985 -0.000127604167,25.5664821 C-0.000127604167,11.5206658 11.1677891,0.132834184 24.9452109,0.132834184 C38.7226328,0.132834184 49.8905495,11.5206658 49.8905495,25.5664821" id="Fill-1" fill="#7000C6" mask="url(#mask-2)"></path>
                </g>
                <g id="Group-6" transform="translate(60.000000, 0.000000)">
                    <mask id="mask-4" fill="white">
                        <use xlink:href="#path-3"></use>
                    </mask>
                    <g id="Clip-5"></g>
                    <path d="M50.6696475,25.5664821 C50.6696475,39.6122985 39.5108475,51.0001301 25.7446725,51.0001301 C11.9784975,51.0001301 0.8196975,39.6122985 0.8196975,25.5664821 C0.8196975,11.5206658 11.9784975,0.132834184 25.7446725,0.132834184 C39.5108475,0.132834184 50.6696475,11.5206658 50.6696475,25.5664821" id="Fill-4" fill="#7000C6" mask="url(#mask-4)"></path>
                </g>
                <g id="Group-9" transform="translate(91.000000, 0.000000)">
                    <mask id="mask-6" fill="white">
                        <use xlink:href="#path-5"></use>
                    </mask>
                    <g id="Clip-8"></g>
                    <path d="M50.8266711,25.5664821 C50.8266711,39.6122985 39.4956845,51.0001301 25.5170897,51.0001301 C11.5397895,51.0001301 0.207508313,39.6122985 0.207508313,25.5664821 C0.207508313,11.5206658 11.5397895,0.132834184 25.5170897,0.132834184 C39.4956845,0.132834184 50.8266711,11.5206658 50.8266711,25.5664821" id="Fill-7" fill="#7000C6" mask="url(#mask-6)"></path>
                </g>
                <g id="Group-12" transform="translate(100.000000, 0.000000)">
                    <mask id="mask-8" fill="white">
                        <use xlink:href="#path-7"></use>
                    </mask>
                    <g id="Clip-11"></g>
                    <path d="M50.4990525,25.5664821 C50.4990525,39.6122985 39.3402525,51.0001301 25.5753525,51.0001301 C11.8091775,51.0001301 0.6503775,39.6122985 0.6503775,25.5664821 C0.6503775,11.5206658 11.8091775,0.132834184 25.5753525,0.132834184 C39.3402525,0.132834184 50.4990525,11.5206658 50.4990525,25.5664821" id="Fill-10" fill="#7000C6" mask="url(#mask-8)"></path>
                </g>
                <g id="Group-15" transform="translate(102.000000, 0.000000)">
                    <mask id="mask-10" fill="white">
                        <use xlink:href="#path-9"></use>
                    </mask>
                    <g id="Clip-14"></g>
                    <path d="M50.0994675,25.5664821 C50.0994675,39.6122985 38.9393925,51.0001301 25.1744925,51.0001301 C11.4083175,51.0001301 0.2495175,39.6122985 0.2495175,25.5664821 C0.2495175,11.5206658 11.4083175,0.132834184 25.1744925,0.132834184 C38.9393925,0.132834184 50.0994675,11.5206658 50.0994675,25.5664821" id="Fill-13" fill="#7000C6" mask="url(#mask-10)"></path>
                </g>
                <g id="Group-18" transform="translate(103.000000, 0.000000)">
                    <mask id="mask-12" fill="white">
                        <use xlink:href="#path-11"></use>
                    </mask>
                    <g id="Clip-17"></g>
                    <path d="M49.9734583,25.5664821 C49.9734583,39.6122985 38.8055417,51.0001301 25.0281198,51.0001301 C11.251974,51.0001301 0.08278125,39.6122985 0.08278125,25.5664821 C0.08278125,11.5206658 11.251974,0.132834184 25.0281198,0.132834184 C38.8055417,0.132834184 49.9734583,11.5206658 49.9734583,25.5664821" id="Fill-16" fill="#7000C6" mask="url(#mask-12)"></path>
                </g>
                <g id="Group-21" transform="translate(103.000000, 0.000000)">
                    <mask id="mask-14" fill="white">
                        <use xlink:href="#path-13"></use>
                    </mask>
                    <g id="Clip-20"></g>
                    <path d="M50.5737675,25.5664821 C50.5737675,39.6122985 39.4136925,51.0001301 25.6487925,51.0001301 C11.8826175,51.0001301 0.7238175,39.6122985 0.7238175,25.5664821 C0.7238175,11.5206658 11.8826175,0.132834184 25.6487925,0.132834184 C39.4136925,0.132834184 50.5737675,11.5206658 50.5737675,25.5664821" id="Fill-19" fill="#7000C6" mask="url(#mask-14)"></path>
                </g>
                <g id="Group-24" transform="translate(104.000000, 0.000000)">
                    <mask id="mask-16" fill="white">
                        <use xlink:href="#path-15"></use>
                    </mask>
                    <g id="Clip-23"></g>
                    <path d="M50.1729075,25.5664821 C50.1729075,39.6122985 39.0141075,51.0001301 25.2479325,51.0001301 C11.4817575,51.0001301 0.3229575,39.6122985 0.3229575,25.5664821 C0.3229575,11.5206658 11.4817575,0.132834184 25.2479325,0.132834184 C39.0141075,0.132834184 50.1729075,11.5206658 50.1729075,25.5664821" id="Fill-22" fill="#7000C6" mask="url(#mask-16)"></path>
                </g>
                <g id="Group-27" transform="translate(105.000000, 0.000000)">
                    <mask id="mask-18" fill="white">
                        <use xlink:href="#path-17"></use>
                    </mask>
                    <g id="Clip-26"></g>
                    <path d="M50.7937864,25.5664821 C50.7937864,39.6122985 39.4627998,51.0001301 25.484205,51.0001301 C11.5069048,51.0001301 0.174623594,39.6122985 0.174623594,25.5664821 C0.174623594,11.5206658 11.5069048,0.132834184 25.484205,0.132834184 C39.4627998,0.132834184 50.7937864,11.5206658 50.7937864,25.5664821" id="Fill-25" fill="#7000C6" mask="url(#mask-18)"></path>
                </g>
                <g id="Group-30" transform="translate(105.000000, 0.000000)">
                    <mask id="mask-20" fill="white">
                        <use xlink:href="#path-19"></use>
                    </mask>
                    <g id="Clip-29"></g>
                    <path d="M50.647335,25.5664821 C50.647335,39.6122985 39.48726,51.0001301 25.72236,51.0001301 C11.956185,51.0001301 0.797385,39.6122985 0.797385,25.5664821 C0.797385,11.5206658 11.956185,0.132834184 25.72236,0.132834184 C39.48726,0.132834184 50.647335,11.5206658 50.647335,25.5664821" id="Fill-28" fill="#7000C6" mask="url(#mask-20)"></path>
                </g>
                <g id="Group-33" transform="translate(107.000000, 0.000000)">
                    <mask id="mask-22" fill="white">
                        <use xlink:href="#path-21"></use>
                    </mask>
                    <g id="Clip-32"></g>
                    <path d="M50.2463475,25.5664821 C50.2463475,39.6122985 39.0875475,51.0001301 25.3213725,51.0001301 C11.5564725,51.0001301 0.3963975,39.6122985 0.3963975,25.5664821 C0.3963975,11.5206658 11.5564725,0.132834184 25.3213725,0.132834184 C39.0875475,0.132834184 50.2463475,11.5206658 50.2463475,25.5664821" id="Fill-31" fill="#7000C6" mask="url(#mask-22)"></path>
                </g>
                <g id="Group-36" transform="translate(107.000000, 0.000000)">
                    <mask id="mask-24" fill="white">
                        <use xlink:href="#path-23"></use>
                    </mask>
                    <g id="Clip-35"></g>
                    <path d="M50.8696543,25.5664821 C50.8696543,39.6122985 39.537373,51.0001301 25.5587782,51.0001301 C11.581478,51.0001301 0.250491488,39.6122985 0.250491488,25.5664821 C0.250491488,11.5206658 11.581478,0.132834184 25.5587782,0.132834184 C39.537373,0.132834184 50.8696543,11.5206658 50.8696543,25.5664821" id="Fill-34" fill="#7000C6" mask="url(#mask-24)"></path>
                </g>
                <g id="Group-39" transform="translate(108.000000, 0.000000)">
                    <mask id="mask-26" fill="white">
                        <use xlink:href="#path-25"></use>
                    </mask>
                    <g id="Clip-38"></g>
                    <path d="M50.720775,25.5664821 C50.720775,39.6122985 39.561975,51.0001301 25.7958,51.0001301 C12.029625,51.0001301 0.870825,39.6122985 0.870825,25.5664821 C0.870825,11.5206658 12.029625,0.132834184 25.7958,0.132834184 C39.561975,0.132834184 50.720775,11.5206658 50.720775,25.5664821" id="Fill-37" fill="#7000C6" mask="url(#mask-26)"></path>
                </g>
                <g id="Group-42" transform="translate(109.000000, 0.000000)">
                    <mask id="mask-28" fill="white">
                        <use xlink:href="#path-27"></use>
                    </mask>
                    <g id="Clip-41"></g>
                    <path d="M50.3197875,25.5664821 C50.3197875,39.6122985 39.1609875,51.0001301 25.3948125,51.0001301 C11.6299125,51.0001301 0.4698375,39.6122985 0.4698375,25.5664821 C0.4698375,11.5206658 11.6299125,0.132834184 25.3948125,0.132834184 C39.1609875,0.132834184 50.3197875,11.5206658 50.3197875,25.5664821" id="Fill-40" fill="#7000C6" mask="url(#mask-28)"></path>
                </g>
                <g id="Group-45" transform="translate(110.000000, 0.000000)">
                    <mask id="mask-30" fill="white">
                        <use xlink:href="#path-29"></use>
                    </mask>
                    <g id="Clip-44"></g>
                    <path d="M49.9608594,25.5664821 C49.9608594,39.6122985 38.7916667,51.0001301 25.0155208,51.0001301 C11.238099,51.0001301 0.0701822917,39.6122985 0.0701822917,25.5664821 C0.0701822917,11.5206658 11.238099,0.132834184 25.0155208,0.132834184 C38.7916667,0.132834184 49.9608594,11.5206658 49.9608594,25.5664821" id="Fill-43" fill="#7000C6" mask="url(#mask-30)"></path>
                </g>
                <g id="Group-48" transform="translate(110.000000, 0.000000)">
                    <mask id="mask-32" fill="white">
                        <use xlink:href="#path-31"></use>
                    </mask>
                    <g id="Clip-47"></g>
                    <path d="M50.794215,25.5664821 C50.794215,39.6122985 39.635415,51.0001301 25.86924,51.0001301 C12.10434,51.0001301 0.944265,39.6122985 0.944265,25.5664821 C0.944265,11.5206658 12.10434,0.132834184 25.86924,0.132834184 C39.635415,0.132834184 50.794215,11.5206658 50.794215,25.5664821" id="Fill-46" fill="#7000C6" mask="url(#mask-32)"></path>
                </g>
                <g id="Group-51" transform="translate(113.000000, 0.000000)">
                    <mask id="mask-34" fill="white">
                        <use xlink:href="#path-33"></use>
                    </mask>
                    <g id="Clip-50"></g>
                    <path d="M50.3932275,25.5664821 C50.3932275,39.6122985 39.2344275,51.0001301 25.4682525,51.0001301 C11.7033525,51.0001301 0.5445525,39.6122985 0.5445525,25.5664821 C0.5445525,11.5206658 11.7033525,0.132834184 25.4682525,0.132834184 C39.2344275,0.132834184 50.3932275,11.5206658 50.3932275,25.5664821" id="Fill-49" fill="#7000C6" mask="url(#mask-34)"></path>
                </g>
                <g id="Group-54" transform="translate(114.000000, 0.000000)">
                    <mask id="mask-36" fill="white">
                        <use xlink:href="#path-35"></use>
                    </mask>
                    <g id="Clip-53"></g>
                    <path d="M49.9936425,25.5664821 C49.9936425,39.6122985 38.8335675,51.0001301 25.0686675,51.0001301 C11.3024925,51.0001301 0.1436925,39.6122985 0.1436925,25.5664821 C0.1436925,11.5206658 11.3024925,0.132834184 25.0686675,0.132834184 C38.8335675,0.132834184 49.9936425,11.5206658 49.9936425,25.5664821" id="Fill-52" fill="#7000C6" mask="url(#mask-36)"></path>
                </g>
                <g id="Group-57" transform="translate(115.000000, 0.000000)">
                    <mask id="mask-38" fill="white">
                        <use xlink:href="#path-37"></use>
                    </mask>
                    <g id="Clip-56"></g>
                    <path d="M49.867655,25.5664821 C49.867655,39.6122985 38.708855,51.0001301 24.94268,51.0001301 C11.17778,51.0001301 0.017705,39.6122985 0.017705,25.5664821 C0.017705,11.5206658 11.17778,0.132834184 24.94268,0.132834184 C38.708855,0.132834184 49.867655,11.5206658 49.867655,25.5664821" id="Fill-55" fill="#7000C6" mask="url(#mask-38)"></path>
                </g>
                <g id="Group-60" transform="translate(115.000000, 0.000000)">
                    <mask id="mask-40" fill="white">
                        <use xlink:href="#path-39"></use>
                    </mask>
                    <g id="Clip-59"></g>
                    <path d="M50.4679425,25.5664821 C50.4679425,39.6122985 39.3078675,51.0001301 25.5429675,51.0001301 C11.7767925,51.0001301 0.6179925,39.6122985 0.6179925,25.5664821 C0.6179925,11.5206658 11.7767925,0.132834184 25.5429675,0.132834184 C39.3078675,0.132834184 50.4679425,11.5206658 50.4679425,25.5664821" id="Fill-58" fill="#7000C6" mask="url(#mask-40)"></path>
                </g>
                <g id="Group-63" transform="translate(116.000000, 0.000000)">
                    <mask id="mask-42" fill="white">
                        <use xlink:href="#path-41"></use>
                    </mask>
                    <g id="Clip-62"></g>
                    <path d="M50.0670825,25.5664821 C50.0670825,39.6122985 38.9082825,51.0001301 25.1421075,51.0001301 C11.3772075,51.0001301 0.2171325,39.6122985 0.2171325,25.5664821 C0.2171325,11.5206658 11.3772075,0.132834184 25.1421075,0.132834184 C38.9082825,0.132834184 50.0670825,11.5206658 50.0670825,25.5664821" id="Fill-61" fill="#7000C6" mask="url(#mask-42)"></path>
                </g>
                <g id="Group-66" transform="translate(117.000000, 0.000000)">
                    <mask id="mask-44" fill="white">
                        <use xlink:href="#path-43"></use>
                    </mask>
                    <g id="Clip-65"></g>
                    <path d="M49.9410469,25.5664821 C49.9410469,39.6122985 38.7731302,51.0001301 24.9957083,51.0001301 C11.2195625,51.0001301 0.0516458333,39.6122985 0.0516458333,25.5664821 C0.0516458333,11.5206658 11.2195625,0.132834184 24.9957083,0.132834184 C38.7731302,0.132834184 49.9410469,11.5206658 49.9410469,25.5664821" id="Fill-64" fill="#7000C6" mask="url(#mask-44)"></path>
                </g>
                <g id="Group-69" transform="translate(117.000000, 0.000000)">
                    <mask id="mask-46" fill="white">
                        <use xlink:href="#path-45"></use>
                    </mask>
                    <g id="Clip-68"></g>
                    <path d="M50.54151,25.5664821 C50.54151,39.6122985 39.381435,51.0001301 25.616535,51.0001301 C11.85036,51.0001301 0.69156,39.6122985 0.69156,25.5664821 C0.69156,11.5206658 11.85036,0.132834184 25.616535,0.132834184 C39.381435,0.132834184 50.54151,11.5206658 50.54151,25.5664821" id="Fill-67" fill="#7000C6" mask="url(#mask-46)"></path>
                </g>
                <g id="Group-72" transform="translate(119.000000, 0.000000)">
                    <mask id="mask-48" fill="white">
                        <use xlink:href="#path-47"></use>
                    </mask>
                    <g id="Clip-71"></g>
                    <path d="M50.1405225,25.5664821 C50.1405225,39.6122985 38.9817225,51.0001301 25.2155475,51.0001301 C11.4493725,51.0001301 0.2905725,39.6122985 0.2905725,25.5664821 C0.2905725,11.5206658 11.4493725,0.132834184 25.2155475,0.132834184 C38.9817225,0.132834184 50.1405225,11.5206658 50.1405225,25.5664821" id="Fill-70" fill="#7000C6" mask="url(#mask-48)"></path>
                </g>
                <g id="Group-75" transform="translate(119.000000, 0.000000)">
                    <mask id="mask-50" fill="white">
                        <use xlink:href="#path-49"></use>
                    </mask>
                    <g id="Clip-74"></g>
                    <path d="M50.7621963,25.5664821 C50.7621963,39.6122985 39.4299151,51.0001301 25.4526149,51.0001301 C11.4740201,51.0001301 0.143033549,39.6122985 0.143033549,25.5664821 C0.143033549,11.5206658 11.4740201,0.132834184 25.4526149,0.132834184 C39.4299151,0.132834184 50.7621963,11.5206658 50.7621963,25.5664821" id="Fill-73" fill="#7000C6" mask="url(#mask-50)"></path>
                </g>
                <g id="Group-78" transform="translate(120.000000, 0.000000)">
                    <mask id="mask-52" fill="white">
                        <use xlink:href="#path-51"></use>
                    </mask>
                    <g id="Clip-77"></g>
                    <path d="M50.61495,25.5664821 C50.61495,39.6122985 39.45615,51.0001301 25.689975,51.0001301 C11.9238,51.0001301 0.765,39.6122985 0.765,25.5664821 C0.765,11.5206658 11.9238,0.132834184 25.689975,0.132834184 C39.45615,0.132834184 50.61495,11.5206658 50.61495,25.5664821" id="Fill-76" fill="#7000C6" mask="url(#mask-52)"></path>
                </g>
                <g id="Group-81" transform="translate(121.000000, 0.000000)">
                    <mask id="mask-54" fill="white">
                        <use xlink:href="#path-53"></use>
                    </mask>
                    <g id="Clip-80"></g>
                    <path d="M50.2139625,25.5664821 C50.2139625,39.6122985 39.0551625,51.0001301 25.2889875,51.0001301 C11.5240875,51.0001301 0.3640125,39.6122985 0.3640125,25.5664821 C0.3640125,11.5206658 11.5240875,0.132834184 25.2889875,0.132834184 C39.0551625,0.132834184 50.2139625,11.5206658 50.2139625,25.5664821" id="Fill-79" fill="#7000C6" mask="url(#mask-54)"></path>
                </g>
                <g id="Group-84" transform="translate(122.000000, 0.000000)">
                    <mask id="mask-56" fill="white">
                        <use xlink:href="#path-55"></use>
                    </mask>
                    <g id="Clip-83"></g>
                    <path d="M50.8367695,25.5664821 C50.8367695,39.6122985 39.5044883,51.0001301 25.5271882,51.0001301 C11.5485933,51.0001301 0.21760677,39.6122985 0.21760677,25.5664821 C0.21760677,11.5206658 11.5485933,0.132834184 25.5271882,0.132834184 C39.5044883,0.132834184 50.8367695,11.5206658 50.8367695,25.5664821" id="Fill-82" fill="#7000C6" mask="url(#mask-56)"></path>
                </g>
                <g id="Group-87" transform="translate(122.000000, 0.000000)">
                    <mask id="mask-58" fill="white">
                        <use xlink:href="#path-57"></use>
                    </mask>
                    <g id="Clip-86"></g>
                    <path d="M50.68839,25.5664821 C50.68839,39.6122985 39.52959,51.0001301 25.763415,51.0001301 C11.99724,51.0001301 0.83844,39.6122985 0.83844,25.5664821 C0.83844,11.5206658 11.99724,0.132834184 25.763415,0.132834184 C39.52959,0.132834184 50.68839,11.5206658 50.68839,25.5664821" id="Fill-85" fill="#7000C6" mask="url(#mask-58)"></path>
                </g>
                <g id="Group-90" transform="translate(124.000000, 0.000000)">
                    <mask id="mask-60" fill="white">
                        <use xlink:href="#path-59"></use>
                    </mask>
                    <g id="Clip-89"></g>
                    <path d="M50.2886775,25.5664821 C50.2886775,39.6122985 39.1286025,51.0001301 25.3624275,51.0001301 C11.5975275,51.0001301 0.4387275,39.6122985 0.4387275,25.5664821 C0.4387275,11.5206658 11.5975275,0.132834184 25.3624275,0.132834184 C39.1286025,0.132834184 50.2886775,11.5206658 50.2886775,25.5664821" id="Fill-88" fill="#7000C6" mask="url(#mask-60)"></path>
                </g>
                <g id="Group-93" transform="translate(125.000000, 0.000000)">
                    <mask id="mask-62" fill="white">
                        <use xlink:href="#path-61"></use>
                    </mask>
                    <g id="Clip-92"></g>
                    <path d="M49.9285755,25.5664821 C49.9285755,39.6122985 38.7606589,51.0001301 24.983237,51.0001301 C11.2058151,51.0001301 0.0378984375,39.6122985 0.0378984375,25.5664821 C0.0378984375,11.5206658 11.2058151,0.132834184 24.983237,0.132834184 C38.7606589,0.132834184 49.9285755,11.5206658 49.9285755,25.5664821" id="Fill-91" fill="#7000C6" mask="url(#mask-62)"></path>
                </g>
                <g id="Group-96" transform="translate(125.000000, 0.000000)">
                    <mask id="mask-64" fill="white">
                        <use xlink:href="#path-63"></use>
                    </mask>
                    <g id="Clip-95"></g>
                    <path d="M50.76183,25.5664821 C50.76183,39.6122985 39.60303,51.0001301 25.836855,51.0001301 C12.071955,51.0001301 0.91188,39.6122985 0.91188,25.5664821 C0.91188,11.5206658 12.071955,0.132834184 25.836855,0.132834184 C39.60303,0.132834184 50.76183,11.5206658 50.76183,25.5664821" id="Fill-94" fill="#7000C6" mask="url(#mask-64)"></path>
                </g>
                <g id="Group-99" transform="translate(126.000000, 0.000000)">
                    <mask id="mask-66" fill="white">
                        <use xlink:href="#path-65"></use>
                    </mask>
                    <g id="Clip-98"></g>
                    <path d="M50.3621175,25.5664821 C50.3621175,39.6122985 39.2020425,51.0001301 25.4371425,51.0001301 C11.6709675,51.0001301 0.5121675,39.6122985 0.5121675,25.5664821 C0.5121675,11.5206658 11.6709675,0.132834184 25.4371425,0.132834184 C39.2020425,0.132834184 50.3621175,11.5206658 50.3621175,25.5664821" id="Fill-97" fill="#7000C6" mask="url(#mask-66)"></path>
                </g>
                <g id="Group-102" transform="translate(127.000000, 0.000000)">
                    <mask id="mask-68" fill="white">
                        <use xlink:href="#path-67"></use>
                    </mask>
                    <g id="Clip-101"></g>
                    <path d="M49.9612575,25.5664821 C49.9612575,39.6122985 38.8024575,51.0001301 25.0362825,51.0001301 C11.2701075,51.0001301 0.1113075,39.6122985 0.1113075,25.5664821 C0.1113075,11.5206658 11.2701075,0.132834184 25.0362825,0.132834184 C38.8024575,0.132834184 49.9612575,11.5206658 49.9612575,25.5664821" id="Fill-100" fill="#7000C6" mask="url(#mask-68)"></path>
                </g>
                <g id="Group-105" transform="translate(127.000000, 0.000000)">
                    <mask id="mask-70" fill="white">
                        <use xlink:href="#path-69"></use>
                    </mask>
                    <g id="Clip-104"></g>
                    <path d="M50.83527,25.5664821 C50.83527,39.6122985 39.67647,51.0001301 25.910295,51.0001301 C12.145395,51.0001301 0.986595,39.6122985 0.986595,25.5664821 C0.986595,11.5206658 12.145395,0.132834184 25.910295,0.132834184 C39.67647,0.132834184 50.83527,11.5206658 50.83527,25.5664821" id="Fill-103" fill="#7000C6" mask="url(#mask-70)"></path>
                </g>
                <g id="Group-108" transform="translate(129.000000, 0.000000)">
                    <mask id="mask-72" fill="white">
                        <use xlink:href="#path-71"></use>
                    </mask>
                    <g id="Clip-107"></g>
                    <path d="M50.4355575,25.5664821 C50.4355575,39.6122985 39.2754825,51.0001301 25.5105825,51.0001301 C11.7444075,51.0001301 0.5856075,39.6122985 0.5856075,25.5664821 C0.5856075,11.5206658 11.7444075,0.132834184 25.5105825,0.132834184 C39.2754825,0.132834184 50.4355575,11.5206658 50.4355575,25.5664821" id="Fill-106" fill="#7000C6" mask="url(#mask-72)"></path>
                </g>
                <g id="Group-111" transform="translate(130.000000, 0.000000)">
                    <mask id="mask-74" fill="white">
                        <use xlink:href="#path-73"></use>
                    </mask>
                    <g id="Clip-110"></g>
                    <path d="M50.0346975,25.5664821 C50.0346975,39.6122985 38.8758975,51.0001301 25.1097225,51.0001301 C11.3448225,51.0001301 0.1847475,39.6122985 0.1847475,25.5664821 C0.1847475,11.5206658 11.3448225,0.132834184 25.1097225,0.132834184 C38.8758975,0.132834184 50.0346975,11.5206658 50.0346975,25.5664821" id="Fill-109" fill="#7000C6" mask="url(#mask-74)"></path>
                </g>
                <g id="Group-114" transform="translate(131.000000, 0.000000)">
                    <mask id="mask-76" fill="white">
                        <use xlink:href="#path-75"></use>
                    </mask>
                    <g id="Clip-113"></g>
                    <path d="M49.9099115,25.5664821 C49.9099115,39.6122985 38.7407187,51.0001301 24.9645729,51.0001301 C11.187151,51.0001301 0.0179583333,39.6122985 0.0179583333,25.5664821 C0.0179583333,11.5206658 11.187151,0.132834184 24.9645729,0.132834184 C38.7407187,0.132834184 49.9099115,11.5206658 49.9099115,25.5664821" id="Fill-112" fill="#7000C6" mask="url(#mask-76)"></path>
                </g>
                <g id="Group-117" transform="translate(131.000000, 0.000000)">
                    <mask id="mask-78" fill="white">
                        <use xlink:href="#path-77"></use>
                    </mask>
                    <g id="Clip-116"></g>
                    <path d="M50.509125,25.5664821 C50.509125,39.6122985 39.350325,51.0001301 25.58415,51.0001301 C11.817975,51.0001301 0.659175,39.6122985 0.659175,25.5664821 C0.659175,11.5206658 11.817975,0.132834184 25.58415,0.132834184 C39.350325,0.132834184 50.509125,11.5206658 50.509125,25.5664821" id="Fill-115" fill="#7000C6" mask="url(#mask-78)"></path>
                </g>
                <g id="Group-120" transform="translate(133.000000, 0.000000)">
                    <mask id="mask-80" fill="white">
                        <use xlink:href="#path-79"></use>
                    </mask>
                    <g id="Clip-119"></g>
                    <path d="M50.1081375,25.5664821 C50.1081375,39.6122985 38.9493375,51.0001301 25.1831625,51.0001301 C11.4182625,51.0001301 0.2581875,39.6122985 0.2581875,25.5664821 C0.2581875,11.5206658 11.4182625,0.132834184 25.1831625,0.132834184 C38.9493375,0.132834184 50.1081375,11.5206658 50.1081375,25.5664821" id="Fill-118" fill="#7000C6" mask="url(#mask-80)"></path>
                </g>
                <g id="Group-123" transform="translate(134.000000, 0.000000)">
                    <mask id="mask-82" fill="white">
                        <use xlink:href="#path-81"></use>
                    </mask>
                    <g id="Clip-122"></g>
                    <path d="M49.9834115,25.5664821 C49.9834115,39.6122985 38.8142187,51.0001301 25.0380729,51.0001301 C11.260651,51.0001301 0.092734375,39.6122985 0.092734375,25.5664821 C0.092734375,11.5206658 11.260651,0.132834184 25.0380729,0.132834184 C38.8142187,0.132834184 49.9834115,11.5206658 49.9834115,25.5664821" id="Fill-121" fill="#7000C6" mask="url(#mask-82)"></path>
                </g>
                <g id="Group-126" transform="translate(135.000000, 0.000000)">
                    <mask id="mask-84" fill="white">
                        <use xlink:href="#path-83"></use>
                    </mask>
                    <g id="Clip-125"></g>
                    <path d="M50.582565,25.5664821 C50.582565,39.6122985 39.423765,51.0001301 25.65759,51.0001301 C11.891415,51.0001301 0.732615,39.6122985 0.732615,25.5664821 C0.732615,11.5206658 11.891415,0.132834184 25.65759,0.132834184 C39.423765,0.132834184 50.582565,11.5206658 50.582565,25.5664821" id="Fill-124" fill="#7000C6" mask="url(#mask-84)"></path>
                </g>
                <g id="Group-129" transform="translate(136.000000, 0.000000)">
                    <mask id="mask-86" fill="white">
                        <use xlink:href="#path-85"></use>
                    </mask>
                    <g id="Clip-128"></g>
                    <path d="M50.1828525,25.5664821 C50.1828525,39.6122985 39.0227775,51.0001301 25.2578775,51.0001301 C11.4917025,51.0001301 0.3316275,39.6122985 0.3316275,25.5664821 C0.3316275,11.5206658 11.4917025,0.132834184 25.2578775,0.132834184 C39.0227775,0.132834184 50.1828525,11.5206658 50.1828525,25.5664821" id="Fill-127" fill="#7000C6" mask="url(#mask-86)"></path>
                </g>
                <g id="Group-132" transform="translate(136.000000, 0.000000)">
                    <mask id="mask-88" fill="white">
                        <use xlink:href="#path-87"></use>
                    </mask>
                    <g id="Clip-131"></g>
                    <path d="M50.8038848,25.5664821 C50.8038848,39.6122985 39.4728983,51.0001301 25.4943034,51.0001301 C11.5157086,51.0001301 0.184722051,39.6122985 0.184722051,25.5664821 C0.184722051,11.5206658 11.5157086,0.132834184 25.4943034,0.132834184 C39.4728983,0.132834184 50.8038848,11.5206658 50.8038848,25.5664821" id="Fill-130" fill="#7000C6" mask="url(#mask-88)"></path>
                </g>
                <g id="Group-135" transform="translate(137.000000, 0.000000)">
                    <mask id="mask-90" fill="white">
                        <use xlink:href="#path-89"></use>
                    </mask>
                    <g id="Clip-134"></g>
                    <path d="M50.656005,25.5664821 C50.656005,39.6122985 39.497205,51.0001301 25.73103,51.0001301 C11.96613,51.0001301 0.806055,39.6122985 0.806055,25.5664821 C0.806055,11.5206658 11.96613,0.132834184 25.73103,0.132834184 C39.497205,0.132834184 50.656005,11.5206658 50.656005,25.5664821" id="Fill-133" fill="#7000C6" mask="url(#mask-90)"></path>
                </g>
                <g id="Group-138" transform="translate(138.000000, 0.000000)">
                    <mask id="mask-92" fill="white">
                        <use xlink:href="#path-91"></use>
                    </mask>
                    <g id="Clip-137"></g>
                    <path d="M50.2562925,25.5664821 C50.2562925,39.6122985 39.0962175,51.0001301 25.3313175,51.0001301 C11.5651425,51.0001301 0.4063425,39.6122985 0.4063425,25.5664821 C0.4063425,11.5206658 11.5651425,0.132834184 25.3313175,0.132834184 C39.0962175,0.132834184 50.2562925,11.5206658 50.2562925,25.5664821" id="Fill-136" fill="#7000C6" mask="url(#mask-92)"></path>
                </g>
                <g id="Group-141" transform="translate(139.000000, 0.000000)">
                    <mask id="mask-94" fill="white">
                        <use xlink:href="#path-93"></use>
                    </mask>
                    <g id="Clip-140"></g>
                    <path d="M49.8961641,25.5664821 C49.8961641,39.6122985 38.7282474,51.0001301 24.9508255,51.0001301 C11.1734036,51.0001301 0.00548697917,39.6122985 0.00548697917,25.5664821 C0.00548697917,11.5206658 11.1734036,0.132834184 24.9508255,0.132834184 C38.7282474,0.132834184 49.8961641,11.5206658 49.8961641,25.5664821" id="Fill-139" fill="#7000C6" mask="url(#mask-94)"></path>
                </g>
                <g id="Group-144" transform="translate(139.000000, 0.000000)">
                    <mask id="mask-96" fill="white">
                        <use xlink:href="#path-95"></use>
                    </mask>
                    <g id="Clip-143"></g>
                    <path d="M50.73072,25.5664821 C50.73072,39.6122985 39.570645,51.0001301 25.80447,51.0001301 C12.03957,51.0001301 0.879495,39.6122985 0.879495,25.5664821 C0.879495,11.5206658 12.03957,0.132834184 25.80447,0.132834184 C39.570645,0.132834184 50.73072,11.5206658 50.73072,25.5664821" id="Fill-142" fill="#7000C6" mask="url(#mask-96)"></path>
                </g>
                <g id="Group-147" transform="translate(141.000000, 0.000000)">
                    <mask id="mask-98" fill="white">
                        <use xlink:href="#path-97"></use>
                    </mask>
                    <g id="Clip-146"></g>
                    <path d="M50.3297325,25.5664821 C50.3297325,39.6122985 39.1709325,51.0001301 25.4047575,51.0001301 C11.6385825,51.0001301 0.4797825,39.6122985 0.4797825,25.5664821 C0.4797825,11.5206658 11.6385825,0.132834184 25.4047575,0.132834184 C39.1709325,0.132834184 50.3297325,11.5206658 50.3297325,25.5664821" id="Fill-145" fill="#7000C6" mask="url(#mask-98)"></path>
                </g>
                <g id="Group-150" transform="translate(142.000000, 0.000000)">
                    <mask id="mask-100" fill="white">
                        <use xlink:href="#path-99"></use>
                    </mask>
                    <g id="Clip-149"></g>
                    <path d="M49.9696641,25.5664821 C49.9696641,39.6122985 38.8017474,51.0001301 25.0243255,51.0001301 C11.2481797,51.0001301 0.0789869792,39.6122985 0.0789869792,25.5664821 C0.0789869792,11.5206658 11.2481797,0.132834184 25.0243255,0.132834184 C38.8017474,0.132834184 49.9696641,11.5206658 49.9696641,25.5664821" id="Fill-148" fill="#7000C6" mask="url(#mask-100)"></path>
                </g>
                <g id="Group-153" transform="translate(142.000000, 0.000000)">
                    <mask id="mask-102" fill="white">
                        <use xlink:href="#path-101"></use>
                    </mask>
                    <g id="Clip-152"></g>
                    <path d="M50.80416,25.5664821 C50.80416,39.6122985 39.644085,51.0001301 25.879185,51.0001301 C12.11301,51.0001301 0.95421,39.6122985 0.95421,25.5664821 C0.95421,11.5206658 12.11301,0.132834184 25.879185,0.132834184 C39.644085,0.132834184 50.80416,11.5206658 50.80416,25.5664821" id="Fill-151" fill="#7000C6" mask="url(#mask-102)"></path>
                </g>
                <g id="Group-156" transform="translate(143.000000, 0.000000)">
                    <mask id="mask-104" fill="white">
                        <use xlink:href="#path-103"></use>
                    </mask>
                    <g id="Clip-155"></g>
                    <path d="M50.4033,25.5664821 C50.4033,39.6122985 39.2445,51.0001301 25.478325,51.0001301 C11.71215,51.0001301 0.55335,39.6122985 0.55335,25.5664821 C0.55335,11.5206658 11.71215,0.132834184 25.478325,0.132834184 C39.2445,0.132834184 50.4033,11.5206658 50.4033,25.5664821" id="Fill-154" fill="#7000C6" mask="url(#mask-104)"></path>
                </g>
                <g id="Group-159" transform="translate(144.000000, 0.000000)">
                    <mask id="mask-106" fill="white">
                        <use xlink:href="#path-105"></use>
                    </mask>
                    <g id="Clip-158"></g>
                    <path d="M50.0035875,25.5664821 C50.0035875,39.6122985 38.8435125,51.0001301 25.0773375,51.0001301 C11.3124375,51.0001301 0.1523625,39.6122985 0.1523625,25.5664821 C0.1523625,11.5206658 11.3124375,0.132834184 25.0773375,0.132834184 C38.8435125,0.132834184 50.0035875,11.5206658 50.0035875,25.5664821" id="Fill-157" fill="#7000C6" mask="url(#mask-106)"></path>
                </g>
                <g id="Group-162" transform="translate(145.000000, 0.000000)">
                    <mask id="mask-108" fill="white">
                        <use xlink:href="#path-107"></use>
                    </mask>
                    <g id="Clip-161"></g>
                    <path d="M49.8776,25.5664821 C49.8776,39.6122985 38.717525,51.0001301 24.952625,51.0001301 C11.18645,51.0001301 0.02765,39.6122985 0.02765,25.5664821 C0.02765,11.5206658 11.18645,0.132834184 24.952625,0.132834184 C38.717525,0.132834184 49.8776,11.5206658 49.8776,25.5664821" id="Fill-160" fill="#7000C6" mask="url(#mask-108)"></path>
                </g>
                <g id="Group-165" transform="translate(146.000000, 0.000000)">
                    <mask id="mask-110" fill="white">
                        <use xlink:href="#path-109"></use>
                    </mask>
                    <g id="Clip-164"></g>
                    <path d="M50.47674,25.5664821 C50.47674,39.6122985 39.31794,51.0001301 25.551765,51.0001301 C11.786865,51.0001301 0.62679,39.6122985 0.62679,25.5664821 C0.62679,11.5206658 11.786865,0.132834184 25.551765,0.132834184 C39.31794,0.132834184 50.47674,11.5206658 50.47674,25.5664821" id="Fill-163" fill="#7000C6" mask="url(#mask-110)"></path>
                </g>
                <g id="Group-168" transform="translate(147.000000, 0.000000)">
                    <mask id="mask-112" fill="white">
                        <use xlink:href="#path-111"></use>
                    </mask>
                    <g id="Clip-167"></g>
                    <path d="M50.0770275,25.5664821 C50.0770275,39.6122985 38.9169525,51.0001301 25.1520525,51.0001301 C11.3858775,51.0001301 0.2258025,39.6122985 0.2258025,25.5664821 C0.2258025,11.5206658 11.3858775,0.132834184 25.1520525,0.132834184 C38.9169525,0.132834184 50.0770275,11.5206658 50.0770275,25.5664821" id="Fill-166" fill="#7000C6" mask="url(#mask-112)"></path>
                </g>
                <g id="Group-171" transform="translate(148.000000, 0.000000)">
                    <mask id="mask-114" fill="white">
                        <use xlink:href="#path-113"></use>
                    </mask>
                    <g id="Clip-170"></g>
                    <path d="M49.951,25.5664821 C49.951,39.6122985 38.7830833,51.0001301 25.0056615,51.0001301 C11.2282396,51.0001301 0.0603229167,39.6122985 0.0603229167,25.5664821 C0.0603229167,11.5206658 11.2282396,0.132834184 25.0056615,0.132834184 C38.7830833,0.132834184 49.951,11.5206658 49.951,25.5664821" id="Fill-169" fill="#7000C6" mask="url(#mask-114)"></path>
                </g>
                <g id="Group-174" transform="translate(148.000000, 0.000000)">
                    <mask id="mask-116" fill="white">
                        <use xlink:href="#path-115"></use>
                    </mask>
                    <g id="Clip-173"></g>
                    <path d="M50.55018,25.5664821 C50.55018,39.6122985 39.39138,51.0001301 25.625205,51.0001301 C11.860305,51.0001301 0.70023,39.6122985 0.70023,25.5664821 C0.70023,11.5206658 11.860305,0.132834184 25.625205,0.132834184 C39.39138,0.132834184 50.55018,11.5206658 50.55018,25.5664821" id="Fill-172" fill="#7000C6" mask="url(#mask-116)"></path>
                </g>
                <g id="Group-177" transform="translate(149.000000, 0.000000)">
                    <mask id="mask-118" fill="white">
                        <use xlink:href="#path-117"></use>
                    </mask>
                    <g id="Clip-176"></g>
                    <path d="M50.1504675,25.5664821 C50.1504675,39.6122985 38.9903925,51.0001301 25.2254925,51.0001301 C11.4593175,51.0001301 0.3005175,39.6122985 0.3005175,25.5664821 C0.3005175,11.5206658 11.4593175,0.132834184 25.2254925,0.132834184 C38.9903925,0.132834184 50.1504675,11.5206658 50.1504675,25.5664821" id="Fill-175" fill="#7000C6" mask="url(#mask-118)"></path>
                </g>
                <g id="Group-180" transform="translate(150.000000, 0.000000)">
                    <mask id="mask-120" fill="white">
                        <use xlink:href="#path-119"></use>
                    </mask>
                    <g id="Clip-179"></g>
                    <path d="M50.7711296,25.5664821 C50.7711296,39.6122985 39.440143,51.0001301 25.4615482,51.0001301 C11.4829534,51.0001301 0.151966799,39.6122985 0.151966799,25.5664821 C0.151966799,11.5206658 11.4829534,0.132834184 25.4615482,0.132834184 C39.440143,0.132834184 50.7711296,11.5206658 50.7711296,25.5664821" id="Fill-178" fill="#7000C6" mask="url(#mask-120)"></path>
                </g>
                <g id="Group-183" transform="translate(151.000000, 0.000000)">
                    <mask id="mask-122" fill="white">
                        <use xlink:href="#path-121"></use>
                    </mask>
                    <g id="Clip-182"></g>
                    <path d="M50.624895,25.5664821 C50.624895,39.6122985 39.46482,51.0001301 25.69992,51.0001301 C11.933745,51.0001301 0.77367,39.6122985 0.77367,25.5664821 C0.77367,11.5206658 11.933745,0.132834184 25.69992,0.132834184 C39.46482,0.132834184 50.624895,11.5206658 50.624895,25.5664821" id="Fill-181" fill="#7000C6" mask="url(#mask-122)"></path>
                </g>
                <g id="Group-186" transform="translate(152.000000, 0.000000)">
                    <mask id="mask-124" fill="white">
                        <use xlink:href="#path-123"></use>
                    </mask>
                    <g id="Clip-185"></g>
                    <path d="M50.2239075,25.5664821 C50.2239075,39.6122985 39.0651075,51.0001301 25.2989325,51.0001301 C11.5327575,51.0001301 0.3739575,39.6122985 0.3739575,25.5664821 C0.3739575,11.5206658 11.5327575,0.132834184 25.2989325,0.132834184 C39.0651075,0.132834184 50.2239075,11.5206658 50.2239075,25.5664821" id="Fill-184" fill="#7000C6" mask="url(#mask-124)"></path>
                </g>
                <g id="Group-189" transform="translate(152.000000, 0.000000)">
                    <mask id="mask-126" fill="white">
                        <use xlink:href="#path-125"></use>
                    </mask>
                    <g id="Clip-188"></g>
                    <path d="M50.8457028,25.5664821 C50.8457028,39.6122985 39.5147162,51.0001301 25.5361214,51.0001301 C11.5588213,51.0001301 0.22654002,39.6122985 0.22654002,25.5664821 C0.22654002,11.5206658 11.5588213,0.132834184 25.5361214,0.132834184 C39.5147162,0.132834184 50.8457028,11.5206658 50.8457028,25.5664821" id="Fill-187" fill="#7000C6" mask="url(#mask-126)"></path>
                </g>
                <g id="Group-192" transform="translate(154.000000, 0.000000)">
                    <mask id="mask-128" fill="white">
                        <use xlink:href="#path-127"></use>
                    </mask>
                    <g id="Clip-191"></g>
                    <path d="M50.698335,25.5664821 C50.698335,39.6122985 39.53826,51.0001301 25.77336,51.0001301 C12.007185,51.0001301 0.848385,39.6122985 0.848385,25.5664821 C0.848385,11.5206658 12.007185,0.132834184 25.77336,0.132834184 C39.53826,0.132834184 50.698335,11.5206658 50.698335,25.5664821" id="Fill-190" fill="#7000C6" mask="url(#mask-128)"></path>
                </g>
                <g id="Group-195" transform="translate(155.000000, 0.000000)">
                    <mask id="mask-130" fill="white">
                        <use xlink:href="#path-129"></use>
                    </mask>
                    <g id="Clip-194"></g>
                    <path d="M50.2973475,25.5664821 C50.2973475,39.6122985 39.1385475,51.0001301 25.3723725,51.0001301 C11.6061975,51.0001301 0.4473975,39.6122985 0.4473975,25.5664821 C0.4473975,11.5206658 11.6061975,0.132834184 25.3723725,0.132834184 C39.1385475,0.132834184 50.2973475,11.5206658 50.2973475,25.5664821" id="Fill-193" fill="#7000C6" mask="url(#mask-130)"></path>
                </g>
                <g id="Group-198" transform="translate(157.000000, 0.000000)">
                    <mask id="mask-132" fill="white">
                        <use xlink:href="#path-131"></use>
                    </mask>
                    <g id="Clip-197"></g>
                    <path d="M49.9385286,25.5664821 C49.9385286,39.6122985 38.7693359,51.0001301 24.9919141,51.0001301 C11.2157682,51.0001301 0.0465755208,39.6122985 0.0465755208,25.5664821 C0.0465755208,11.5206658 11.2157682,0.132834184 24.9919141,0.132834184 C38.7693359,0.132834184 49.9385286,11.5206658 49.9385286,25.5664821" id="Fill-196" fill="#7000C6" mask="url(#mask-132)"></path>
                </g>
                <g id="Group-201" transform="translate(157.000000, 0.000000)">
                    <mask id="mask-134" fill="white">
                        <use xlink:href="#path-133"></use>
                    </mask>
                    <g id="Clip-200"></g>
                    <path d="M50.771775,25.5664821 C50.771775,39.6122985 39.612975,51.0001301 25.8468,51.0001301 C12.080625,51.0001301 0.921825,39.6122985 0.921825,25.5664821 C0.921825,11.5206658 12.080625,0.132834184 25.8468,0.132834184 C39.612975,0.132834184 50.771775,11.5206658 50.771775,25.5664821" id="Fill-199" fill="#7000C6" mask="url(#mask-134)"></path>
                </g>
                <g id="Group-204" transform="translate(158.000000, 0.000000)">
                    <mask id="mask-136" fill="white">
                        <use xlink:href="#path-135"></use>
                    </mask>
                    <g id="Clip-203"></g>
                    <path d="M50.370915,25.5664821 C50.370915,39.6122985 39.212115,51.0001301 25.44594,51.0001301 C11.68104,51.0001301 0.520965,39.6122985 0.520965,25.5664821 C0.520965,11.5206658 11.68104,0.132834184 25.44594,0.132834184 C39.212115,0.132834184 50.370915,11.5206658 50.370915,25.5664821" id="Fill-202" fill="#7000C6" mask="url(#mask-136)"></path>
                </g>
                <g id="Group-207" transform="translate(159.000000, 0.000000)">
                    <mask id="mask-138" fill="white">
                        <use xlink:href="#path-137"></use>
                    </mask>
                    <g id="Clip-206"></g>
                    <path d="M49.9712025,25.5664821 C49.9712025,39.6122985 38.8111275,51.0001301 25.0462275,51.0001301 C11.2800525,51.0001301 0.1212525,39.6122985 0.1212525,25.5664821 C0.1212525,11.5206658 11.2800525,0.132834184 25.0462275,0.132834184 C38.8111275,0.132834184 49.9712025,11.5206658 49.9712025,25.5664821" id="Fill-205" fill="#7000C6" mask="url(#mask-138)"></path>
                </g>
                <g id="Group-210" transform="translate(159.000000, 0.000000)">
                    <mask id="mask-140" fill="white">
                        <use xlink:href="#path-139"></use>
                    </mask>
                    <g id="Clip-209"></g>
                    <path d="M50.845215,25.5664821 C50.845215,39.6122985 39.686415,51.0001301 25.92024,51.0001301 C12.154065,51.0001301 0.995265,39.6122985 0.995265,25.5664821 C0.995265,11.5206658 12.154065,0.132834184 25.92024,0.132834184 C39.686415,0.132834184 50.845215,11.5206658 50.845215,25.5664821" id="Fill-208" fill="#7000C6" mask="url(#mask-140)"></path>
                </g>
                <g id="Group-213" transform="translate(160.000000, 0.000000)">
                    <mask id="mask-142" fill="white">
                        <use xlink:href="#path-141"></use>
                    </mask>
                    <g id="Clip-212"></g>
                    <path d="M50.44563,25.5664821 C50.44563,39.6122985 39.285555,51.0001301 25.51938,51.0001301 C11.75448,51.0001301 0.594405,39.6122985 0.594405,25.5664821 C0.594405,11.5206658 11.75448,0.132834184 25.51938,0.132834184 C39.285555,0.132834184 50.44563,11.5206658 50.44563,25.5664821" id="Fill-211" fill="#7000C6" mask="url(#mask-142)"></path>
                </g>
                <g id="Group-216" transform="translate(161.000000, 0.000000)">
                    <mask id="mask-144" fill="white">
                        <use xlink:href="#path-143"></use>
                    </mask>
                    <g id="Clip-215"></g>
                    <path d="M50.0446425,25.5664821 C50.0446425,39.6122985 38.8845675,51.0001301 25.1196675,51.0001301 C11.3534925,51.0001301 0.1946925,39.6122985 0.1946925,25.5664821 C0.1946925,11.5206658 11.3534925,0.132834184 25.1196675,0.132834184 C38.8845675,0.132834184 50.0446425,11.5206658 50.0446425,25.5664821" id="Fill-214" fill="#7000C6" mask="url(#mask-144)"></path>
                </g>
                <g id="Group-219" transform="translate(162.000000, 0.000000)">
                    <mask id="mask-146" fill="white">
                        <use xlink:href="#path-145"></use>
                    </mask>
                    <g id="Clip-218"></g>
                    <path d="M49.9185885,25.5664821 C49.9185885,39.6122985 38.7506719,51.0001301 24.97325,51.0001301 C11.1971042,51.0001301 0.0279114583,39.6122985 0.0279114583,25.5664821 C0.0279114583,11.5206658 11.1971042,0.132834184 24.97325,0.132834184 C38.7506719,0.132834184 49.9185885,11.5206658 49.9185885,25.5664821" id="Fill-217" fill="#7000C6" mask="url(#mask-146)"></path>
                </g>
                <g id="Group-222" transform="translate(163.000000, 0.000000)">
                    <mask id="mask-148" fill="white">
                        <use xlink:href="#path-147"></use>
                    </mask>
                    <g id="Clip-221"></g>
                    <path d="M50.51907,25.5664821 C50.51907,39.6122985 39.358995,51.0001301 25.594095,51.0001301 C11.82792,51.0001301 0.667845,39.6122985 0.667845,25.5664821 C0.667845,11.5206658 11.82792,0.132834184 25.594095,0.132834184 C39.358995,0.132834184 50.51907,11.5206658 50.51907,25.5664821" id="Fill-220" fill="#7000C6" mask="url(#mask-148)"></path>
                </g>
                <g id="Group-225" transform="translate(164.000000, 0.000000)">
                    <mask id="mask-150" fill="white">
                        <use xlink:href="#path-149"></use>
                    </mask>
                    <g id="Clip-224"></g>
                    <path d="M50.1180825,25.5664821 C50.1180825,39.6122985 38.9592825,51.0001301 25.1931075,51.0001301 C11.4269325,51.0001301 0.2681325,39.6122985 0.2681325,25.5664821 C0.2681325,11.5206658 11.4269325,0.132834184 25.1931075,0.132834184 C38.9592825,0.132834184 50.1180825,11.5206658 50.1180825,25.5664821" id="Fill-223" fill="#7000C6" mask="url(#mask-150)"></path>
                </g>
                <g id="Group-228" transform="translate(165.000000, 0.000000)">
                    <mask id="mask-152" fill="white">
                        <use xlink:href="#path-151"></use>
                    </mask>
                    <g id="Clip-227"></g>
                    <path d="M49.9922161,25.5664821 C49.9922161,39.6122985 38.8242995,51.0001301 25.0468776,51.0001301 C11.2707318,51.0001301 0.101539062,39.6122985 0.101539062,25.5664821 C0.101539062,11.5206658 11.2707318,0.132834184 25.0468776,0.132834184 C38.8242995,0.132834184 49.9922161,11.5206658 49.9922161,25.5664821" id="Fill-226" fill="#7000C6" mask="url(#mask-152)"></path>
                </g>
                <g id="Group-231" transform="translate(165.000000, 0.000000)">
                    <mask id="mask-154" fill="white">
                        <use xlink:href="#path-153"></use>
                    </mask>
                    <g id="Clip-230"></g>
                    <path d="M50.59251,25.5664821 C50.59251,39.6122985 39.432435,51.0001301 25.667535,51.0001301 C11.90136,51.0001301 0.74256,39.6122985 0.74256,25.5664821 C0.74256,11.5206658 11.90136,0.132834184 25.667535,0.132834184 C39.432435,0.132834184 50.59251,11.5206658 50.59251,25.5664821" id="Fill-229" fill="#7000C6" mask="url(#mask-154)"></path>
                </g>
                <g id="Group-234" transform="translate(166.000000, 0.000000)">
                    <mask id="mask-156" fill="white">
                        <use xlink:href="#path-155"></use>
                    </mask>
                    <g id="Clip-233"></g>
                    <path d="M50.1915225,25.5664821 C50.1915225,39.6122985 39.0327225,51.0001301 25.2665475,51.0001301 C11.5003725,51.0001301 0.3415725,39.6122985 0.3415725,25.5664821 C0.3415725,11.5206658 11.5003725,0.132834184 25.2665475,0.132834184 C39.0327225,0.132834184 50.1915225,11.5206658 50.1915225,25.5664821" id="Fill-232" fill="#7000C6" mask="url(#mask-156)"></path>
                </g>
                <g id="Group-237" transform="translate(167.000000, 0.000000)">
                    <mask id="mask-158" fill="white">
                        <use xlink:href="#path-157"></use>
                    </mask>
                    <g id="Clip-236"></g>
                    <path d="M50.8141127,25.5664821 C50.8141127,39.6122985 39.4818315,51.0001301 25.5045314,51.0001301 C11.5259365,51.0001301 0.193655301,39.6122985 0.193655301,25.5664821 C0.193655301,11.5206658 11.5259365,0.132834184 25.5045314,0.132834184 C39.4818315,0.132834184 50.8141127,11.5206658 50.8141127,25.5664821" id="Fill-235" fill="#7000C6" mask="url(#mask-158)"></path>
                </g>
                <g id="Group-240" transform="translate(168.000000, 0.000000)">
                    <mask id="mask-160" fill="white">
                        <use xlink:href="#path-159"></use>
                    </mask>
                    <g id="Clip-239"></g>
                    <path d="M50.66595,25.5664821 C50.66595,39.6122985 39.50715,51.0001301 25.740975,51.0001301 C11.9748,51.0001301 0.816,39.6122985 0.816,25.5664821 C0.816,11.5206658 11.9748,0.132834184 25.740975,0.132834184 C39.50715,0.132834184 50.66595,11.5206658 50.66595,25.5664821" id="Fill-238" fill="#7000C6" mask="url(#mask-160)"></path>
                </g>
                <g id="Group-243" transform="translate(169.000000, 0.000000)">
                    <mask id="mask-162" fill="white">
                        <use xlink:href="#path-161"></use>
                    </mask>
                    <g id="Clip-242"></g>
                    <path d="M50.26509,25.5664821 C50.26509,39.6122985 39.10629,51.0001301 25.340115,51.0001301 C11.575215,51.0001301 0.41514,39.6122985 0.41514,25.5664821 C0.41514,11.5206658 11.575215,0.132834184 25.340115,0.132834184 C39.10629,0.132834184 50.26509,11.5206658 50.26509,25.5664821" id="Fill-241" fill="#7000C6" mask="url(#mask-162)"></path>
                </g>
                <g id="Group-246" transform="translate(170.000000, 0.000000)">
                    <mask id="mask-164" fill="white">
                        <use xlink:href="#path-163"></use>
                    </mask>
                    <g id="Clip-245"></g>
                    <path d="M49.9061172,25.5664821 C49.9061172,39.6122985 38.7369245,51.0001301 24.9607786,51.0001301 C11.1833568,51.0001301 0.0154401042,39.6122985 0.0154401042,25.5664821 C0.0154401042,11.5206658 11.1833568,0.132834184 24.9607786,0.132834184 C38.7369245,0.132834184 49.9061172,11.5206658 49.9061172,25.5664821" id="Fill-244" fill="#7000C6" mask="url(#mask-164)"></path>
                </g>
                <g id="Group-249" transform="translate(170.000000, 0.000000)">
                    <mask id="mask-166" fill="white">
                        <use xlink:href="#path-165"></use>
                    </mask>
                    <g id="Clip-248"></g>
                    <path d="M50.73939,25.5664821 C50.73939,39.6122985 39.58059,51.0001301 25.814415,51.0001301 C12.04824,51.0001301 0.88944,39.6122985 0.88944,25.5664821 C0.88944,11.5206658 12.04824,0.132834184 25.814415,0.132834184 C39.58059,0.132834184 50.73939,11.5206658 50.73939,25.5664821" id="Fill-247" fill="#7000C6" mask="url(#mask-166)"></path>
                </g>
                <g id="Group-252" transform="translate(171.000000, 0.000000)">
                    <mask id="mask-168" fill="white">
                        <use xlink:href="#path-167"></use>
                    </mask>
                    <g id="Clip-251"></g>
                    <path d="M50.3396775,25.5664821 C50.3396775,39.6122985 39.1796025,51.0001301 25.4134275,51.0001301 C11.6485275,51.0001301 0.4884525,39.6122985 0.4884525,25.5664821 C0.4884525,11.5206658 11.6485275,0.132834184 25.4134275,0.132834184 C39.1796025,0.132834184 50.3396775,11.5206658 50.3396775,25.5664821" id="Fill-250" fill="#7000C6" mask="url(#mask-168)"></path>
                </g>
                <g id="Group-255" transform="translate(173.000000, 0.000000)">
                    <mask id="mask-170" fill="white">
                        <use xlink:href="#path-169"></use>
                    </mask>
                    <g id="Clip-254"></g>
                    <path d="M49.9796172,25.5664821 C49.9796172,39.6122985 38.8117005,51.0001301 25.0342786,51.0001301 C11.2568568,51.0001301 0.0889401042,39.6122985 0.0889401042,25.5664821 C0.0889401042,11.5206658 11.2568568,0.132834184 25.0342786,0.132834184 C38.8117005,0.132834184 49.9796172,11.5206658 49.9796172,25.5664821" id="Fill-253" fill="#7000C6" mask="url(#mask-170)"></path>
                </g>
                <g id="Group-258" transform="translate(173.000000, 0.000000)">
                    <mask id="mask-172" fill="white">
                        <use xlink:href="#path-171"></use>
                    </mask>
                    <g id="Clip-257"></g>
                    <path d="M50.81283,25.5664821 C50.81283,39.6122985 39.65403,51.0001301 25.887855,51.0001301 C12.122955,51.0001301 0.96288,39.6122985 0.96288,25.5664821 C0.96288,11.5206658 12.122955,0.132834184 25.887855,0.132834184 C39.65403,0.132834184 50.81283,11.5206658 50.81283,25.5664821" id="Fill-256" fill="#7000C6" mask="url(#mask-172)"></path>
                </g>
                <g id="Group-261" transform="translate(175.000000, 0.000000)">
                    <mask id="mask-174" fill="white">
                        <use xlink:href="#path-173"></use>
                    </mask>
                    <g id="Clip-260"></g>
                    <path d="M50.413245,25.5664821 C50.413245,39.6122985 39.25317,51.0001301 25.48827,51.0001301 C11.722095,51.0001301 0.563295,39.6122985 0.563295,25.5664821 C0.563295,11.5206658 11.722095,0.132834184 25.48827,0.132834184 C39.25317,0.132834184 50.413245,11.5206658 50.413245,25.5664821" id="Fill-259" fill="#7000C6" mask="url(#mask-174)"></path>
                </g>
                <g id="Group-264" transform="translate(176.000000, 0.000000)">
                    <mask id="mask-176" fill="white">
                        <use xlink:href="#path-175"></use>
                    </mask>
                    <g id="Clip-263"></g>
                    <path d="M50.0122575,25.5664821 C50.0122575,39.6122985 38.8534575,51.0001301 25.0872825,51.0001301 C11.3211075,51.0001301 0.1623075,39.6122985 0.1623075,25.5664821 C0.1623075,11.5206658 11.3211075,0.132834184 25.0872825,0.132834184 C38.8534575,0.132834184 50.0122575,11.5206658 50.0122575,25.5664821" id="Fill-262" fill="#7000C6" mask="url(#mask-176)"></path>
                </g>
                <g id="Group-267" transform="translate(177.000000, 0.000000)">
                    <mask id="mask-178" fill="white">
                        <use xlink:href="#path-177"></use>
                    </mask>
                    <g id="Clip-266"></g>
                    <path d="M49.887545,25.5664821 C49.887545,39.6122985 38.72747,51.0001301 24.961295,51.0001301 C11.196395,51.0001301 0.03632,39.6122985 0.03632,25.5664821 C0.03632,11.5206658 11.196395,0.132834184 24.961295,0.132834184 C38.72747,0.132834184 49.887545,11.5206658 49.887545,25.5664821" id="Fill-265" fill="#7000C6" mask="url(#mask-178)"></path>
                </g>
                <g id="Group-270" transform="translate(177.000000, 0.000000)">
                    <mask id="mask-180" fill="white">
                        <use xlink:href="#path-179"></use>
                    </mask>
                    <g id="Clip-269"></g>
                    <path d="M50.486685,25.5664821 C50.486685,39.6122985 39.32661,51.0001301 25.56171,51.0001301 C11.795535,51.0001301 0.636735,39.6122985 0.636735,25.5664821 C0.636735,11.5206658 11.795535,0.132834184 25.56171,0.132834184 C39.32661,0.132834184 50.486685,11.5206658 50.486685,25.5664821" id="Fill-268" fill="#7000C6" mask="url(#mask-180)"></path>
                </g>
                <g id="Group-273" transform="translate(179.000000, 0.000000)">
                    <mask id="mask-182" fill="white">
                        <use xlink:href="#path-181"></use>
                    </mask>
                    <g id="Clip-272"></g>
                    <path d="M50.0856975,25.5664821 C50.0856975,39.6122985 38.9268975,51.0001301 25.1607225,51.0001301 C11.3958225,51.0001301 0.2357475,39.6122985 0.2357475,25.5664821 C0.2357475,11.5206658 11.3958225,0.132834184 25.1607225,0.132834184 C38.9268975,0.132834184 50.0856975,11.5206658 50.0856975,25.5664821" id="Fill-271" fill="#7000C6" mask="url(#mask-182)"></path>
                </g>
                <g id="Group-276" transform="translate(180.000000, 0.000000)">
                    <mask id="mask-184" fill="white">
                        <use xlink:href="#path-183"></use>
                    </mask>
                    <g id="Clip-275"></g>
                    <path d="M49.9610807,25.5664821 C49.9610807,39.6122985 38.791888,51.0001301 25.0157422,51.0001301 C11.2383203,51.0001301 0.0691276042,39.6122985 0.0691276042,25.5664821 C0.0691276042,11.5206658 11.2383203,0.132834184 25.0157422,0.132834184 C38.791888,0.132834184 49.9610807,11.5206658 49.9610807,25.5664821" id="Fill-274" fill="#7000C6" mask="url(#mask-184)"></path>
                </g>
                <g id="Group-279" transform="translate(180.000000, 0.000000)">
                    <mask id="mask-186" fill="white">
                        <use xlink:href="#path-185"></use>
                    </mask>
                    <g id="Clip-278"></g>
                    <path d="M50.560125,25.5664821 C50.560125,39.6122985 39.401325,51.0001301 25.63515,51.0001301 C11.868975,51.0001301 0.710175,39.6122985 0.710175,25.5664821 C0.710175,11.5206658 11.868975,0.132834184 25.63515,0.132834184 C39.401325,0.132834184 50.560125,11.5206658 50.560125,25.5664821" id="Fill-277" fill="#7000C6" mask="url(#mask-186)"></path>
                </g>
                <g id="Group-282" transform="translate(181.000000, 0.000000)">
                    <mask id="mask-188" fill="white">
                        <use xlink:href="#path-187"></use>
                    </mask>
                    <g id="Clip-281"></g>
                    <path d="M50.1591375,25.5664821 C50.1591375,39.6122985 39.0003375,51.0001301 25.2341625,51.0001301 C11.4692625,51.0001301 0.3091875,39.6122985 0.3091875,25.5664821 C0.3091875,11.5206658 11.4692625,0.132834184 25.2341625,0.132834184 C39.0003375,0.132834184 50.1591375,11.5206658 50.1591375,25.5664821" id="Fill-280" fill="#7000C6" mask="url(#mask-188)"></path>
                </g>
                <g id="Group-285" transform="translate(182.000000, 0.000000)">
                    <mask id="mask-190" fill="white">
                        <use xlink:href="#path-189"></use>
                    </mask>
                    <g id="Clip-284"></g>
                    <path d="M50.781228,25.5664821 C50.781228,39.6122985 39.4489468,51.0001301 25.4716466,51.0001301 C11.4930518,51.0001301 0.162065256,39.6122985 0.162065256,25.5664821 C0.162065256,11.5206658 11.4930518,0.132834184 25.4716466,0.132834184 C39.4489468,0.132834184 50.781228,11.5206658 50.781228,25.5664821" id="Fill-283" fill="#7000C6" mask="url(#mask-190)"></path>
                </g>
                <g id="Group-288" transform="translate(182.000000, 0.000000)">
                    <mask id="mask-192" fill="white">
                        <use xlink:href="#path-191"></use>
                    </mask>
                    <g id="Clip-287"></g>
                    <path d="M50.633565,25.5664821 C50.633565,39.6122985 39.474765,51.0001301 25.70859,51.0001301 C11.942415,51.0001301 0.783615,39.6122985 0.783615,25.5664821 C0.783615,11.5206658 11.942415,0.132834184 25.70859,0.132834184 C39.474765,0.132834184 50.633565,11.5206658 50.633565,25.5664821" id="Fill-286" fill="#7000C6" mask="url(#mask-192)"></path>
                </g>
                <g id="Group-291" transform="translate(183.000000, 0.000000)">
                    <mask id="mask-194" fill="white">
                        <use xlink:href="#path-193"></use>
                    </mask>
                    <g id="Clip-290"></g>
                    <path d="M50.2338525,25.5664821 C50.2338525,39.6122985 39.0737775,51.0001301 25.3088775,51.0001301 C11.5427025,51.0001301 0.3826275,39.6122985 0.3826275,25.5664821 C0.3826275,11.5206658 11.5427025,0.132834184 25.3088775,0.132834184 C39.0737775,0.132834184 50.2338525,11.5206658 50.2338525,25.5664821" id="Fill-289" fill="#7000C6" mask="url(#mask-194)"></path>
                </g>
                <g id="Group-294" transform="translate(184.000000, 0.000000)">
                    <mask id="mask-196" fill="white">
                        <use xlink:href="#path-195"></use>
                    </mask>
                    <g id="Clip-293"></g>
                    <path d="M50.8558012,25.5664821 C50.8558012,39.6122985 39.5248147,51.0001301 25.5462199,51.0001301 C11.567625,51.0001301 0.236638477,39.6122985 0.236638477,25.5664821 C0.236638477,11.5206658 11.567625,0.132834184 25.5462199,0.132834184 C39.5248147,0.132834184 50.8558012,11.5206658 50.8558012,25.5664821" id="Fill-292" fill="#7000C6" mask="url(#mask-196)"></path>
                </g>
                <g id="Group-297" transform="translate(185.000000, 0.000000)">
                    <mask id="mask-198" fill="white">
                        <use xlink:href="#path-197"></use>
                    </mask>
                    <g id="Clip-296"></g>
                    <path d="M50.707005,25.5664821 C50.707005,39.6122985 39.548205,51.0001301 25.78203,51.0001301 C12.01713,51.0001301 0.857055,39.6122985 0.857055,25.5664821 C0.857055,11.5206658 12.01713,0.132834184 25.78203,0.132834184 C39.548205,0.132834184 50.707005,11.5206658 50.707005,25.5664821" id="Fill-295" fill="#7000C6" mask="url(#mask-198)"></path>
                </g>
                <g id="Group-300" transform="translate(186.000000, 0.000000)">
                    <mask id="mask-200" fill="white">
                        <use xlink:href="#path-199"></use>
                    </mask>
                    <g id="Clip-299"></g>
                    <path d="M50.30742,25.5664821 C50.30742,39.6122985 39.147345,51.0001301 25.382445,51.0001301 C11.61627,51.0001301 0.45747,39.6122985 0.45747,25.5664821 C0.45747,11.5206658 11.61627,0.132834184 25.382445,0.132834184 C39.147345,0.132834184 50.30742,11.5206658 50.30742,25.5664821" id="Fill-298" fill="#7000C6" mask="url(#mask-200)"></path>
                </g>
                <g id="Group-303" transform="translate(187.000000, 0.000000)">
                    <mask id="mask-202" fill="white">
                        <use xlink:href="#path-201"></use>
                    </mask>
                    <g id="Clip-302"></g>
                    <path d="M49.9472057,25.5664821 C49.9472057,39.6122985 38.7792891,51.0001301 25.0018672,51.0001301 C11.2244453,51.0001301 0.0565286458,39.6122985 0.0565286458,25.5664821 C0.0565286458,11.5206658 11.2244453,0.132834184 25.0018672,0.132834184 C38.7792891,0.132834184 49.9472057,11.5206658 49.9472057,25.5664821" id="Fill-301" fill="#7000C6" mask="url(#mask-202)"></path>
                </g>
                <g id="Group-306" transform="translate(187.000000, 0.000000)">
                    <mask id="mask-204" fill="white">
                        <use xlink:href="#path-203"></use>
                    </mask>
                    <g id="Clip-305"></g>
                    <path d="M50.78172,25.5664821 C50.78172,39.6122985 39.621645,51.0001301 25.85547,51.0001301 C12.09057,51.0001301 0.930495,39.6122985 0.930495,25.5664821 C0.930495,11.5206658 12.09057,0.132834184 25.85547,0.132834184 C39.621645,0.132834184 50.78172,11.5206658 50.78172,25.5664821" id="Fill-304" fill="#7000C6" mask="url(#mask-204)"></path>
                </g>
                <g id="Group-309" transform="translate(188.000000, 0.000000)">
                    <mask id="mask-206" fill="white">
                        <use xlink:href="#path-205"></use>
                    </mask>
                    <g id="Clip-308"></g>
                    <path d="M50.38086,25.5664821 C50.38086,39.6122985 39.22206,51.0001301 25.455885,51.0001301 C11.68971,51.0001301 0.53091,39.6122985 0.53091,25.5664821 C0.53091,11.5206658 11.68971,0.132834184 25.455885,0.132834184 C39.22206,0.132834184 50.38086,11.5206658 50.38086,25.5664821" id="Fill-307" fill="#7000C6" mask="url(#mask-206)"></path>
                </g>
                <g id="Group-312" transform="translate(190.000000, 0.000000)">
                    <mask id="mask-208" fill="white">
                        <use xlink:href="#path-207"></use>
                    </mask>
                    <g id="Clip-311"></g>
                    <path d="M49.9798725,25.5664821 C49.9798725,39.6122985 38.8210725,51.0001301 25.0548975,51.0001301 C11.2899975,51.0001301 0.1299225,39.6122985 0.1299225,25.5664821 C0.1299225,11.5206658 11.2899975,0.132834184 25.0548975,0.132834184 C38.8210725,0.132834184 49.9798725,11.5206658 49.9798725,25.5664821" id="Fill-310" fill="#7000C6" mask="url(#mask-208)"></path>
                </g>
                <g id="Group-315" transform="translate(191.000000, 0.000000)">
                    <mask id="mask-210" fill="white">
                        <use xlink:href="#path-209"></use>
                    </mask>
                    <g id="Clip-314"></g>
                    <path d="M49.85516,25.5664821 C49.85516,39.6122985 38.695085,51.0001301 24.930185,51.0001301 C11.16401,51.0001301 0.00521,39.6122985 0.00521,25.5664821 C0.00521,11.5206658 11.16401,0.132834184 24.930185,0.132834184 C38.695085,0.132834184 49.85516,11.5206658 49.85516,25.5664821" id="Fill-313" fill="#7000C6" mask="url(#mask-210)"></path>
                </g>
                <g id="Group-318" transform="translate(191.000000, 0.000000)">
                    <mask id="mask-212" fill="white">
                        <use xlink:href="#path-211"></use>
                    </mask>
                    <g id="Clip-317"></g>
                    <path d="M50.4543,25.5664821 C50.4543,39.6122985 39.2955,51.0001301 25.529325,51.0001301 C11.76315,51.0001301 0.60435,39.6122985 0.60435,25.5664821 C0.60435,11.5206658 11.76315,0.132834184 25.529325,0.132834184 C39.2955,0.132834184 50.4543,11.5206658 50.4543,25.5664821" id="Fill-316" fill="#7000C6" mask="url(#mask-212)"></path>
                </g>
                <g id="Group-321" transform="translate(192.000000, 0.000000)">
                    <mask id="mask-214" fill="white">
                        <use xlink:href="#path-213"></use>
                    </mask>
                    <g id="Clip-320"></g>
                    <path d="M50.0545875,25.5664821 C50.0545875,39.6122985 38.8945125,51.0001301 25.1283375,51.0001301 C11.3634375,51.0001301 0.2033625,39.6122985 0.2033625,25.5664821 C0.2033625,11.5206658 11.3634375,0.132834184 25.1283375,0.132834184 C38.8945125,0.132834184 50.0545875,11.5206658 50.0545875,25.5664821" id="Fill-319" fill="#7000C6" mask="url(#mask-214)"></path>
                </g>
                <g id="Group-324" transform="translate(193.000000, 0.000000)">
                    <mask id="mask-216" fill="white">
                        <use xlink:href="#path-215"></use>
                    </mask>
                    <g id="Clip-323"></g>
                    <path d="M49.9286693,25.5664821 C49.9286693,39.6122985 38.7607526,51.0001301 24.9833307,51.0001301 C11.2059089,51.0001301 0.0379921875,39.6122985 0.0379921875,25.5664821 C0.0379921875,11.5206658 11.2059089,0.132834184 24.9833307,0.132834184 C38.7607526,0.132834184 49.9286693,11.5206658 49.9286693,25.5664821" id="Fill-322" fill="#7000C6" mask="url(#mask-216)"></path>
                </g>
                <g id="Group-327" transform="translate(193.000000, 0.000000)">
                    <mask id="mask-218" fill="white">
                        <use xlink:href="#path-217"></use>
                    </mask>
                    <g id="Clip-326"></g>
                    <path d="M50.52774,25.5664821 C50.52774,39.6122985 39.36894,51.0001301 25.602765,51.0001301 C11.837865,51.0001301 0.67779,39.6122985 0.67779,25.5664821 C0.67779,11.5206658 11.837865,0.132834184 25.602765,0.132834184 C39.36894,0.132834184 50.52774,11.5206658 50.52774,25.5664821" id="Fill-325" fill="#7000C6" mask="url(#mask-218)"></path>
                </g>
                <g id="Group-330" transform="translate(196.000000, 0.000000)">
                    <mask id="mask-220" fill="white">
                        <use xlink:href="#path-219"></use>
                    </mask>
                    <g id="Clip-329"></g>
                    <path d="M50.1280275,25.5664821 C50.1280275,39.6122985 38.9679525,51.0001301 25.2030525,51.0001301 C11.4368775,51.0001301 0.2780775,39.6122985 0.2780775,25.5664821 C0.2780775,11.5206658 11.4368775,0.132834184 25.2030525,0.132834184 C38.9679525,0.132834184 50.1280275,11.5206658 50.1280275,25.5664821" id="Fill-328" fill="#7000C6" mask="url(#mask-220)"></path>
                </g>
                <g id="Group-333" transform="translate(196.000000, 0.000000)">
                    <mask id="mask-222" fill="white">
                        <use xlink:href="#path-221"></use>
                    </mask>
                    <g id="Clip-332"></g>
                    <path d="M50.7483433,25.5664821 C50.7483433,39.6122985 39.4173567,51.0001301 25.4387619,51.0001301 C11.4601671,51.0001301 0.129180538,39.6122985 0.129180538,25.5664821 C0.129180538,11.5206658 11.4601671,0.132834184 25.4387619,0.132834184 C39.4173567,0.132834184 50.7483433,11.5206658 50.7483433,25.5664821" id="Fill-331" fill="#7000C6" mask="url(#mask-222)"></path>
                </g>
                <g id="Group-336" transform="translate(197.000000, 0.000000)">
                    <mask id="mask-224" fill="white">
                        <use xlink:href="#path-223"></use>
                    </mask>
                    <g id="Clip-335"></g>
                    <path d="M50.60118,25.5664821 C50.60118,39.6122985 39.44238,51.0001301 25.676205,51.0001301 C11.911305,51.0001301 0.75123,39.6122985 0.75123,25.5664821 C0.75123,11.5206658 11.911305,0.132834184 25.676205,0.132834184 C39.44238,0.132834184 50.60118,11.5206658 50.60118,25.5664821" id="Fill-334" fill="#7000C6" mask="url(#mask-224)"></path>
                </g>
                <g id="Group-339" transform="translate(198.000000, 0.000000)">
                    <mask id="mask-226" fill="white">
                        <use xlink:href="#path-225"></use>
                    </mask>
                    <g id="Clip-338"></g>
                    <path d="M50.2014675,25.5664821 C50.2014675,39.6122985 39.0413925,51.0001301 25.2764925,51.0001301 C11.5103175,51.0001301 0.3515175,39.6122985 0.3515175,25.5664821 C0.3515175,11.5206658 11.5103175,0.132834184 25.2764925,0.132834184 C39.0413925,0.132834184 50.2014675,11.5206658 50.2014675,25.5664821" id="Fill-337" fill="#7000C6" mask="url(#mask-226)"></path>
                </g>
                <g id="Group-342" transform="translate(199.000000, 0.000000)">
                    <mask id="mask-228" fill="white">
                        <use xlink:href="#path-227"></use>
                    </mask>
                    <g id="Clip-341"></g>
                    <path d="M50.8229165,25.5664821 C50.8229165,39.6122985 39.49193,51.0001301 25.5133351,51.0001301 C11.5347403,51.0001301 0.203753758,39.6122985 0.203753758,25.5664821 C0.203753758,11.5206658 11.5347403,0.132834184 25.5133351,0.132834184 C39.49193,0.132834184 50.8229165,11.5206658 50.8229165,25.5664821" id="Fill-340" fill="#7000C6" mask="url(#mask-228)"></path>
                </g>
                <g id="Group-345" transform="translate(199.000000, 0.000000)">
                    <mask id="mask-230" fill="white">
                        <use xlink:href="#path-229"></use>
                    </mask>
                    <g id="Clip-344"></g>
                    <path d="M50.675895,25.5664821 C50.675895,39.6122985 39.51582,51.0001301 25.75092,51.0001301 C11.984745,51.0001301 0.82467,39.6122985 0.82467,25.5664821 C0.82467,11.5206658 11.984745,0.132834184 25.75092,0.132834184 C39.51582,0.132834184 50.675895,11.5206658 50.675895,25.5664821" id="Fill-343" fill="#7000C6" mask="url(#mask-230)"></path>
                </g>
                <g id="Group-348" transform="translate(201.000000, 0.000000)">
                    <mask id="mask-232" fill="white">
                        <use xlink:href="#path-231"></use>
                    </mask>
                    <g id="Clip-347"></g>
                    <path d="M50.275035,25.5664821 C50.275035,39.6122985 39.116235,51.0001301 25.35006,51.0001301 C11.583885,51.0001301 0.425085,39.6122985 0.425085,25.5664821 C0.425085,11.5206658 11.583885,0.132834184 25.35006,0.132834184 C39.116235,0.132834184 50.275035,11.5206658 50.275035,25.5664821" id="Fill-346" fill="#7000C6" mask="url(#mask-232)"></path>
                </g>
                <g id="Group-351" transform="translate(202.000000, 0.000000)">
                    <mask id="mask-234" fill="white">
                        <use xlink:href="#path-233"></use>
                    </mask>
                    <g id="Clip-350"></g>
                    <path d="M49.9147943,25.5664821 C49.9147943,39.6122985 38.7468776,51.0001301 24.9694557,51.0001301 C11.1933099,51.0001301 0.0241171875,39.6122985 0.0241171875,25.5664821 C0.0241171875,11.5206658 11.1933099,0.132834184 24.9694557,0.132834184 C38.7468776,0.132834184 49.9147943,11.5206658 49.9147943,25.5664821" id="Fill-349" fill="#7000C6" mask="url(#mask-234)"></path>
                </g>
            </g>
        </g>
    </g>
</svg>