<?xml version="1.0" encoding="UTF-8"?>
<svg width="248px" height="248px" viewBox="0 0 248 248" version="1.1" xmlns="http://www.w3.org/2000/svg" xmlns:xlink="http://www.w3.org/1999/xlink">
    <!-- Generator: Sketch 52.4 (67378) - http://www.bohemiancoding.com/sketch -->
    <title>Group 53</title>
    <desc>Created with Sketch.</desc>
    <defs>
        <polygon id="path-1" points="0.197497143 0.646171429 43.1565829 0.646171429 43.1565829 43.6046286 0.197497143 43.6046286"></polygon>
        <polygon id="path-3" points="0.395245714 0.84392 43.3538286 0.84392 43.3538286 43.8017486 0.395245714 43.8017486"></polygon>
    </defs>
    <g id="Page-1" stroke="none" stroke-width="1" fill="none" fill-rule="evenodd">
        <g id="2-copy" transform="translate(-1087.000000, -1792.000000)">
            <g id="Group-53" transform="translate(1087.000000, 1792.000000)">
                <g id="Group-3" transform="translate(102.000000, 0.000000)">
                    <mask id="mask-2" fill="white">
                        <use xlink:href="#path-1"></use>
                    </mask>
                    <g id="Clip-2"></g>
                    <path d="M43.1565829,22.1250857 C43.1565829,33.9874857 33.5406971,43.6046286 21.67704,43.6046286 C9.81464,43.6046286 0.197497143,33.9874857 0.197497143,22.1250857 C0.197497143,10.2626857 9.81464,0.645542857 21.67704,0.645542857 C33.5406971,0.645542857 43.1565829,10.2626857 43.1565829,22.1250857" id="Fill-1" fill="#7000C6" mask="url(#mask-2)"></path>
                </g>
                <path d="M135,70 C135,76.0749151 130.074915,81 124,81 C117.925085,81 113,76.0749151 113,70 C113,63.9250849 117.925085,59 124,59 C130.074915,59 135,63.9250849 135,70" id="Fill-4" fill="#7000C6"></path>
                <path d="M129,102.5 C129,105.537813 126.538101,108 123.500644,108 C120.461899,108 118,105.537813 118,102.5 C118,99.4621868 120.461899,97 123.500644,97 C126.538101,97 129,99.4621868 129,102.5" id="Fill-6" fill="#7000C6"></path>
                <path d="M102,226.5 C102,214.626302 111.625044,205 123.5,205 C135.373698,205 145,214.626302 145,226.5 C145,238.374956 135.373698,248 123.5,248 C111.625044,248 102,238.374956 102,226.5" id="Fill-8" fill="#7000C6"></path>
                <path d="M113,178 C113,171.923797 117.925085,167 124,167 C130.074915,167 135,171.923797 135,178 C135,184.074915 130.074915,189 124,189 C117.925085,189 113,184.074915 113,178" id="Fill-10" fill="#7000C6"></path>
                <path d="M118,145.5 C118,142.462187 120.461899,140 123.499356,140 C126.538101,140 129,142.462187 129,145.5 C129,148.537813 126.538101,151 123.499356,151 C120.461899,151 118,148.537813 118,145.5" id="Fill-12" fill="#7000C6"></path>
                <path d="M21.5,103 C33.3736978,103 43,112.625326 43,124.499371 C43,136.374674 33.3736978,146 21.5,146 C9.6250439,146 0,136.374674 0,124.499371 C0,112.625326 9.6250439,103 21.5,103" id="Fill-14" fill="#7000C6"></path>
                <path d="M70,113 C76.0762027,113 81,117.925085 81,124 C81,130.074915 76.0762027,135 70,135 C63.9250849,135 59,130.074915 59,124 C59,117.925085 63.9250849,113 70,113" id="Fill-16" fill="#7000C6"></path>
                <path d="M102.5,119 C105.537813,119 108,121.463186 108,124.499356 C108,127.538101 105.537813,130 102.5,130 C99.4621868,130 97,127.538101 97,124.499356 C97,121.463186 99.4621868,119 102.5,119" id="Fill-18" fill="#7000C6"></path>
                <g id="Group-22" transform="translate(204.000000, 102.000000)">
                    <mask id="mask-4" fill="white">
                        <use xlink:href="#path-3"></use>
                    </mask>
                    <g id="Clip-21"></g>
                    <path d="M21.8747886,0.84392 C10.0111314,0.84392 0.395245714,10.4598057 0.395245714,22.3222057 C0.395245714,34.1858629 10.0111314,43.8017486 21.8747886,43.8017486 C33.7384457,43.8017486 43.3543314,34.1858629 43.3543314,22.3222057 C43.3543314,10.4598057 33.7384457,0.84392 21.8747886,0.84392" id="Fill-20" fill="#7000C6" mask="url(#mask-4)"></path>
                </g>
                <path d="M177.000644,113 C170.924085,113 166,117.925085 166,124 C166,130.074915 170.924085,135 177.000644,135 C183.075915,135 188,130.074915 188,124 C188,117.925085 183.075915,113 177.000644,113" id="Fill-23" fill="#7000C6"></path>
                <path d="M145.5,119 C142.462187,119 140,121.463186 140,124.499356 C140,127.538101 142.462187,130 145.5,130 C148.536525,130 151,127.538101 151,124.499356 C151,121.463186 148.536525,119 145.5,119" id="Fill-25" fill="#7000C6"></path>
                <path d="M211.702276,182.29678 C203.305311,173.901073 189.693746,173.901073 181.29678,182.29678 C172.901073,190.693746 172.901073,204.306569 181.29678,212.702276 C189.693746,221.099241 203.305311,221.099241 211.702276,212.702276 C220.099241,204.306569 220.099241,190.693746 211.702276,182.29678" id="Fill-27" fill="#7000C6"></path>
                <path d="M170.778415,155.221726 C166.481681,150.926091 159.518319,150.926091 155.221585,155.221726 C150.926138,159.517361 150.926138,166.483604 155.221585,170.779239 C159.517031,175.073587 166.481681,175.073587 170.778415,170.779239 C175.073862,166.483604 175.073862,159.517361 170.778415,155.221726" id="Fill-29" fill="#7000C6"></path>
                <path d="M143.389208,136.610792 C141.241484,134.463069 137.758516,134.463069 135.610792,136.610792 C133.463069,138.758516 133.463069,142.241484 135.610792,144.389208 C137.758516,146.536931 141.241484,146.536931 143.389208,144.389208 C145.536931,142.241484 145.536931,138.758516 143.389208,136.610792" id="Fill-31" fill="#7000C6"></path>
                <path d="M211.702276,65.7030816 C203.305311,74.0989728 189.693746,74.0989728 181.29678,65.7030816 C172.901073,57.3071903 172.901073,43.6928097 181.29678,35.2969184 C189.693746,26.9010272 203.305311,26.9010272 211.702276,35.2969184 C220.099241,43.6928097 220.099241,57.3071903 211.702276,65.7030816" id="Fill-33" fill="#7000C6"></path>
                <path d="M170.778415,92.7784151 C166.481681,97.0738616 159.518319,97.0738616 155.221585,92.7784151 C150.926138,88.4829685 150.926138,81.5170315 155.221585,77.2215849 C159.517031,72.9261384 166.481681,72.9261384 170.778415,77.2215849 C175.073862,81.5170315 175.073862,88.4829685 170.778415,92.7784151" id="Fill-35" fill="#7000C6"></path>
                <path d="M143.389208,112.389066 C141.241484,114.536978 137.758516,114.536978 135.610792,112.389066 C133.463069,110.241154 133.463069,106.75788 135.610792,104.609968 C137.758516,102.463344 141.241484,102.463344 143.389208,104.609968 C145.536931,106.75788 145.536931,110.241154 143.389208,112.389066" id="Fill-37" fill="#7000C6"></path>
                <path d="M35.297724,65.7030816 C43.693431,74.0989728 57.3062544,74.0989728 65.7032198,65.7030816 C74.0989267,57.3071903 74.0989267,43.6928097 65.7032198,35.2969184 C57.3062544,26.9010272 43.693431,26.9010272 35.297724,35.2969184 C26.9007587,43.6928097 26.9007587,57.3071903 35.297724,65.7030816" id="Fill-39" fill="#7000C6"></path>
                <path d="M77.2215849,92.7784151 C81.5183191,97.0738616 88.4816809,97.0738616 92.7784151,92.7784151 C97.0738616,88.4829685 97.0738616,81.5170315 92.7784151,77.2215849 C88.4816809,72.9261384 81.5183191,72.9261384 77.2215849,77.2215849 C72.9261384,81.5170315 72.9261384,88.4829685 77.2215849,92.7784151" id="Fill-41" fill="#7000C6"></path>
                <path d="M103.610792,112.389066 C105.758516,114.536978 109.241484,114.536978 111.389208,112.389066 C113.536931,110.241154 113.536931,106.75788 111.389208,104.609968 C109.241484,102.463344 105.758516,102.463344 103.610792,104.609968 C101.463069,106.75788 101.463069,110.241154 103.610792,112.389066" id="Fill-43" fill="#7000C6"></path>
                <path d="M35.297724,182.29678 C43.693431,173.901073 57.3062544,173.901073 65.7032198,182.29678 C74.0989267,190.693746 74.0989267,204.306569 65.7032198,212.702276 C57.3062544,221.099241 43.693431,221.099241 35.297724,212.702276 C26.9007587,204.306569 26.9007587,190.693746 35.297724,182.29678" id="Fill-45" fill="#7000C6"></path>
                <path d="M77.2215849,155.221726 C81.5183191,150.926091 88.4816809,150.926091 92.7784151,155.221726 C97.0738616,159.517361 97.0738616,166.483604 92.7784151,170.779239 C88.4816809,175.073587 81.5183191,175.073587 77.2215849,170.779239 C72.9261384,166.483604 72.9261384,159.517361 77.2215849,155.221726" id="Fill-47" fill="#7000C6"></path>
                <path d="M103.610792,136.610792 C105.758516,134.463069 109.241484,134.463069 111.389208,136.610792 C113.536931,138.758516 113.536931,142.241484 111.389208,144.389208 C109.241484,146.536931 105.758516,146.536931 103.610792,144.389208 C101.463069,142.241484 101.463069,138.758516 103.610792,136.610792" id="Fill-49" fill="#7000C6"></path>
                <path d="M126,124.5 C126,125.881086 124.879653,127 123.499415,127 C122.119176,127 121,125.881086 121,124.5 C121,123.118914 122.119176,122 123.499415,122 C124.879653,122 126,123.118914 126,124.5" id="Fill-51" fill="#7000C6"></path>
            </g>
        </g>
    </g>
</svg>