<?xml version="1.0" encoding="UTF-8"?>
<svg width="596px" height="606px" viewBox="0 0 596 606" version="1.1" xmlns="http://www.w3.org/2000/svg" xmlns:xlink="http://www.w3.org/1999/xlink">
    <!-- Generator: Sketch 52.4 (67378) - http://www.bohemiancoding.com/sketch -->
    <title>Group 6</title>
    <desc>Created with Sketch.</desc>
    <g id="Page-1" stroke="none" stroke-width="1" fill="none" fill-rule="evenodd">
        <g id="Apple-TV" transform="translate(-156.000000, -149.000000)">
            <g id="Group-6" transform="translate(156.000000, 139.000000)">
                <rect id="Rectangle" fill="#FFFFFF" x="0" y="10" width="416" height="606"></rect>
                <g id="Group-Copy-2" transform="translate(89.699951, 65.016568) scale(-1, 1) rotate(-334.000000) translate(-89.699951, -65.016568) translate(35.699951, 19.016568)" stroke="#000000" stroke-width="5">
                    <path d="M2.27373675e-13,48.6771273 L100.688979,4.54747351e-13" id="Path-13"></path>
                    <path d="M4,55.6771273 L104.688979,7" id="Path-13-Copy"></path>
                    <path d="M7,62.6771273 L107.688979,14" id="Path-13-Copy-2"></path>
                    <path d="M11,70.6771273 L100.688979,27.5" id="Path-13-Copy-3"></path>
                    <path d="M14,77.6771273 L91.5,40.5" id="Path-13-Copy-4"></path>
                    <path d="M17,84.6771273 L95.5,46.3385636" id="Path-13-Copy-5"></path>
                    <path d="M20,91.6771273 L96.5,54.5" id="Path-13-Copy-6"></path>
                </g>
                <rect id="Rectangle-Copy" fill="#8300CB" x="443" y="10" width="153" height="90"></rect>
                <rect id="Rectangle-Copy-3" fill="#FFFFFF" x="443" y="361" width="153" height="90"></rect>
                <rect id="Rectangle-Copy-2" stroke="#8300CB" stroke-width="20" x="234" y="154" width="352" height="169"></rect>
                <polyline id="Path-4" stroke="#8300CB" stroke-width="20" points="229 155 415.32841 236 590 155"></polyline>
                <path d="M540,38.5 L583,38.5" id="Path-5-Copy" stroke="#FFFFFF" stroke-width="20"></path>
                <rect id="Rectangle" fill="#8300CB" x="443" y="361" width="76" height="90"></rect>
            </g>
        </g>
    </g>
</svg>